<svg xmlns="http://www.w3.org/2000/svg" xmlns:xlink="http://www.w3.org/1999/xlink" xmlns:sketch="http://www.bohemiancoding.com/sketch/ns" viewBox="0 0 33 75" version="1.1" x="0px" y="0px"><title>7 - RAM Memory (Solid)</title><desc>Created with Sketch.</desc><g stroke="none" stroke-width="1" fill="none" fill-rule="evenodd" sketch:type="MSPage"><g sketch:type="MSLayerGroup" fill="#000000"><path d="M11,28 L19,28 L19,32 L11,32 L11,28 Z" sketch:type="MSShapeGroup"/><path d="M11,46 L19,46 L19,50 L11,50 L11,46 Z" sketch:type="MSShapeGroup"/><path d="M33,11 L33,3.096 C33,1.389 31.611,0 29.905,0 L14,0 L14,1 C14,2.103 13.103,3 12,3 C10.897,3 10,2.103 10,1 L10,0 L0,0 L0,5 L2,5 L2,55 L0,55 L0,60 L10,60 L10,59 C10,57.898 10.897,57 12,57 C13.103,57 14,57.898 14,59 L14,60 L29.905,60 C31.611,60 33,58.611 33,56.904 L33,49 L26,49 L26,47 L33,47 L33,46 L26,46 L26,44 L33,44 L33,43 L26,43 L26,41 L33,41 L33,40 L26,40 L26,38 L33,38 L33,37 L26,37 L26,35 L33,35 L33,34 L26,34 L26,32 L33,32 L33,31 L26,31 L26,29 L33,29 L33,28 L26,28 L26,26 L33,26 L33,25 L26,25 L26,23 L33,23 L33,22 L26,22 L26,20 L33,20 L33,19 L26,19 L26,17 L33,17 L33,16 L26,16 L26,14 L33,14 L33,13 L26,13 L26,11 L33,11 L33,11 Z M5,58 L2,58 L2,57 L4,57 L4,3 L2,3 L2,2 L5,2 L5,58 L5,58 Z M21,52 L19,52 L19,54 L17,54 L17,52 L16,52 L16,54 L14,54 L14,52 L13,52 L13,54 L11,54 L11,52 L9,52 L9,44 L11,44 L11,42 L13,42 L13,44 L14,44 L14,42 L16,42 L16,44 L17,44 L17,42 L19,42 L19,44 L21,44 L21,52 L21,52 Z M21,34 L19,34 L19,36 L17,36 L17,34 L16,34 L16,36 L14,36 L14,34 L13,34 L13,36 L11,36 L11,34 L9,34 L9,26 L11,26 L11,24 L13,24 L13,26 L14,26 L14,24 L16,24 L16,26 L17,26 L17,24 L19,24 L19,26 L21,26 L21,34 L21,34 Z M21,16 L19,16 L19,18 L17,18 L17,16 L16,16 L16,18 L14,18 L14,16 L13,16 L13,18 L11,18 L11,16 L9,16 L9,8 L11,8 L11,6 L13,6 L13,8 L14,8 L14,6 L16,6 L16,8 L17,8 L17,6 L19,6 L19,8 L21,8 L21,16 L21,16 Z" sketch:type="MSShapeGroup"/><path d="M11,10 L19,10 L19,14 L11,14 L11,10 Z" sketch:type="MSShapeGroup"/></g></g><text x="0" y="75" fill="#000000" font-size="5px" font-weight="bold" font-family="'Helvetica Neue', Helvetica, Arial-Unicode, Arial, Sans-serif">Created by Oliviu Stoian</text><text x="0" y="80" fill="#000000" font-size="5px" font-weight="bold" font-family="'Helvetica Neue', Helvetica, Arial-Unicode, Arial, Sans-serif">from the Noun Project</text></svg>