<svg xmlns="http://www.w3.org/2000/svg" xmlns:xlink="http://www.w3.org/1999/xlink" xmlns:sketch="http://www.bohemiancoding.com/sketch/ns" viewBox="0 0 60 75" version="1.1" x="0px" y="0px"><title>9 - Processor Chip (Solid)</title><desc>Created with Sketch.</desc><g stroke="none" stroke-width="1" fill="none" fill-rule="evenodd" sketch:type="MSPage"><g sketch:type="MSLayerGroup" fill="#000000"><path d="M27.063,37 C28.935,37 30.944,36.552 32.873,35.704 C35.392,34.599 37.475,32.948 38.741,31.059 C39.915,29.307 40.225,27.577 39.615,26.19 C38.854,24.457 36.701,23.423 33.856,23.423 C31.984,23.423 29.975,23.871 28.047,24.719 C25.529,25.824 23.445,27.475 22.179,29.365 C21.005,31.117 20.695,32.846 21.304,34.233 C22.065,35.966 24.218,37 27.063,37 L27.063,37 Z M27,29 L34,29 C34.552,29 35,29.447 35,30 C35,30.553 34.552,31 34,31 L27,31 C26.448,31 26,30.553 26,30 C26,29.447 26.448,29 27,29 L27,29 Z" sketch:type="MSShapeGroup"/><path d="M42.687,45 C43.962,45 45,43.963 45,42.688 L45,17.313 C45,16.037 43.962,15 42.687,15 L17.312,15 C16.038,15 15,16.037 15,17.313 L15,42.688 C15,43.963 16.038,45 17.312,45 L42.687,45 L42.687,45 Z M20.517,28.252 C21.992,26.05 24.38,24.145 27.242,22.887 C29.422,21.93 31.709,21.423 33.856,21.423 C37.519,21.423 40.356,22.904 41.446,25.385 C42.341,27.421 41.97,29.831 40.403,32.171 C38.928,34.373 36.54,36.278 33.678,37.536 C31.497,38.493 29.21,39 27.063,39 C23.4,39 20.563,37.519 19.473,35.038 C18.579,33.002 18.95,30.592 20.517,28.252 L20.517,28.252 Z" sketch:type="MSShapeGroup"/><path d="M44.033,12 L15.967,12 C13.779,12 12,13.779 12,15.967 L12,21.5 C12,21.775 12.224,22 12.5,22 C12.671,22 12.838,22.018 13,22.051 L13,17.313 C13,14.935 14.935,13 17.312,13 L42.687,13 C45.065,13 47,14.935 47,17.313 L47,42.688 C47,45.066 45.065,47 42.687,47 L17.312,47 C14.935,47 13,45.066 13,42.688 L13,37.95 C12.838,37.982 12.671,38 12.5,38 C12.224,38 12,38.225 12,38.5 L12,44.033 C12,46.221 13.779,48 15.967,48 L44.033,48 C46.221,48 48,46.221 48,44.033 L48,15.967 C48,13.779 46.221,12 44.033,12" sketch:type="MSShapeGroup"/><path d="M49,0 L49,1 C49,3.206 47.206,5 45,5 C42.794,5 41,3.206 41,1 L41,0 L0,0 L0,60 L41,60 L41,59 C41,56.794 42.794,55 45,55 C47.206,55 49,56.794 49,59 L49,60 L60,60 L60,0 L49,0 L49,0 Z M54,24 C54.552,24 55,24.448 55,25 C55,25.552 54.552,26 54,26 C53.448,26 53,25.552 53,25 C53,24.448 53.448,24 54,24 L54,24 Z M54,34 C54.552,34 55,34.448 55,35 C55,35.552 54.552,36 54,36 C53.448,36 53,35.552 53,35 C53,34.448 53.448,34 54,34 L54,34 Z M17,3 C17.552,3 18,3.448 18,4 C18,4.552 17.552,5 17,5 C16.448,5 16,4.552 16,4 C16,3.448 16.448,3 17,3 L17,3 Z M13,3 C13.552,3 14,3.448 14,4 C14,4.552 13.552,5 13,5 C12.448,5 12,4.552 12,4 C12,3.448 12.448,3 13,3 L13,3 Z M2,2 L6.586,2 L2,6.586 L2,2 L2,2 Z M4,42 C3.448,42 3,41.552 3,41 C3,40.448 3.448,40 4,40 C4.552,40 5,40.448 5,41 C5,41.552 4.552,42 4,42 L4,42 Z M5,46 C5,46.552 4.552,47 4,47 C3.448,47 3,46.552 3,46 C3,45.448 3.448,45 4,45 C4.552,45 5,45.448 5,46 L5,46 Z M4,37 C3.448,37 3,36.552 3,36 C3,35.448 3.448,35 4,35 C4.552,35 5,35.448 5,36 C5,36.552 4.552,37 4,37 L4,37 Z M4,32 C3.448,32 3,31.552 3,31 C3,30.448 3.448,30 4,30 C4.552,30 5,30.448 5,31 C5,31.552 4.552,32 4,32 L4,32 Z M4,27 C3.448,27 3,26.552 3,26 C3,25.448 3.448,25 4,25 C4.552,25 5,25.448 5,26 C5,26.552 4.552,27 4,27 L4,27 Z M4,15 C3.448,15 3,14.552 3,14 C3,13.448 3.448,13 4,13 C4.552,13 5,13.448 5,14 C5,14.552 4.552,15 4,15 L4,15 Z M4,12 C3.448,12 3,11.552 3,11 C3,10.448 3.448,10 4,10 C4.552,10 5,10.448 5,11 C5,11.552 4.552,12 4,12 L4,12 Z M4,57 C3.448,57 3,56.552 3,56 C3,55.448 3.448,55 4,55 C4.552,55 5,55.448 5,56 C5,56.552 4.552,57 4,57 L4,57 Z M4,52 C3.448,52 3,51.552 3,51 C3,50.448 3.448,50 4,50 C4.552,50 5,50.448 5,51 C5,51.552 4.552,52 4,52 L4,52 Z M6,50 C5.448,50 5,49.552 5,49 C5,48.448 5.448,48 6,48 C6.552,48 7,48.448 7,49 C7,49.552 6.552,50 6,50 L6,50 Z M6,45 C5.448,45 5,44.552 5,44 C5,43.448 5.448,43 6,43 C6.552,43 7,43.448 7,44 C7,44.552 6.552,45 6,45 L6,45 Z M6,40 C5.448,40 5,39.552 5,39 C5,38.448 5.448,38 6,38 C6.552,38 7,38.448 7,39 C7,39.552 6.552,40 6,40 L6,40 Z M6,35 C5.448,35 5,34.552 5,34 C5,33.448 5.448,33 6,33 C6.552,33 7,33.448 7,34 C7,34.552 6.552,35 6,35 L6,35 Z M6,30 C5.448,30 5,29.552 5,29 C5,28.448 5.448,28 6,28 C6.552,28 7,28.448 7,29 C7,29.552 6.552,30 6,30 L6,30 Z M6,25 C5.448,25 5,24.552 5,24 C5,23.448 5.448,23 6,23 C6.552,23 7,23.448 7,24 C7,24.552 6.552,25 6,25 L6,25 Z M10,55 C9.448,55 9,54.552 9,54 C9,53.448 9.448,53 10,53 C10.552,53 11,53.448 11,54 C11,54.552 10.552,55 10,55 L10,55 Z M12,57 C11.448,57 11,56.552 11,56 C11,55.448 11.448,55 12,55 C12.552,55 13,55.448 13,56 C13,56.552 12.552,57 12,57 L12,57 Z M15,55 C14.448,55 14,54.552 14,54 C14,53.448 14.448,53 15,53 C15.552,53 16,53.448 16,54 C16,54.552 15.552,55 15,55 L15,55 Z M17,57 C16.448,57 16,56.552 16,56 C16,55.448 16.448,55 17,55 C17.552,55 18,55.448 18,56 C18,56.552 17.552,57 17,57 L17,57 Z M20,55 C19.448,55 19,54.552 19,54 C19,53.448 19.448,53 20,53 C20.552,53 21,53.448 21,54 C21,54.552 20.552,55 20,55 L20,55 Z M22,57 C21.448,57 21,56.552 21,56 C21,55.448 21.448,55 22,55 C22.552,55 23,55.448 23,56 C23,56.552 22.552,57 22,57 L22,57 Z M25,55 C24.448,55 24,54.552 24,54 C24,53.448 24.448,53 25,53 C25.552,53 26,53.448 26,54 C26,54.552 25.552,55 25,55 L25,55 Z M27,57 C26.448,57 26,56.552 26,56 C26,55.448 26.448,55 27,55 C27.552,55 28,55.448 28,56 C28,56.552 27.552,57 27,57 L27,57 Z M30,55 C29.448,55 29,54.552 29,54 C29,53.448 29.448,53 30,53 C30.552,53 31,53.448 31,54 C31,54.552 30.552,55 30,55 L30,55 Z M32,57 C31.448,57 31,56.552 31,56 C31,55.448 31.448,55 32,55 C32.552,55 33,55.448 33,56 C33,56.552 32.552,57 32,57 L32,57 Z M35,55 C34.448,55 34,54.552 34,54 C34,53.448 34.448,53 35,53 C35.552,53 36,53.448 36,54 C36,54.552 35.552,55 35,55 L35,55 Z M37,57 C36.448,57 36,56.552 36,56 C36,55.448 36.448,55 37,55 C37.552,55 38,55.448 38,56 C38,56.552 37.552,57 37,57 L37,57 Z M50,44.033 C50,47.323 47.323,50 44.033,50 L15.967,50 C12.677,50 10,47.323 10,44.033 L10,38.5 C10,37.121 11.122,36 12.5,36 C12.776,36 13,35.776 13,35.5 L13,24.5 C13,24.225 12.776,24 12.5,24 C11.122,24 10,22.879 10,21.5 L10,15.967 C10,12.677 12.677,10 15.967,10 L44.033,10 C47.323,10 50,12.677 50,15.967 L50,44.033 L50,44.033 Z M54,46 C53.448,46 53,45.552 53,45 C53,44.448 53.448,44 54,44 C54.552,44 55,44.448 55,45 C55,45.552 54.552,46 54,46 L54,46 Z M56,57 C55.448,57 55,56.552 55,56 C55,55.448 55.448,55 56,55 C56.552,55 57,55.448 57,56 C57,56.552 56.552,57 56,57 L56,57 Z M56,48 C55.448,48 55,47.552 55,47 C55,46.448 55.448,46 56,46 C56.552,46 57,46.448 57,47 C57,47.552 56.552,48 56,48 L56,48 Z M56,38 C55.448,38 55,37.552 55,37 C55,36.448 55.448,36 56,36 C56.552,36 57,36.448 57,37 C57,37.552 56.552,38 56,38 L56,38 Z M56,28 C55.448,28 55,27.552 55,27 C55,26.448 55.448,26 56,26 C56.552,26 57,26.448 57,27 C57,27.552 56.552,28 56,28 L56,28 Z M56,5 C55.448,5 55,4.552 55,4 C55,3.448 55.448,3 56,3 C56.552,3 57,3.448 57,4 C57,4.552 56.552,5 56,5 L56,5 Z" sketch:type="MSShapeGroup"/></g></g><text x="0" y="75" fill="#000000" font-size="5px" font-weight="bold" font-family="'Helvetica Neue', Helvetica, Arial-Unicode, Arial, Sans-serif">Created by Oliviu Stoian</text><text x="0" y="80" fill="#000000" font-size="5px" font-weight="bold" font-family="'Helvetica Neue', Helvetica, Arial-Unicode, Arial, Sans-serif">from the Noun Project</text></svg>