<svg xmlns="http://www.w3.org/2000/svg" xmlns:xlink="http://www.w3.org/1999/xlink" xmlns:sketch="http://www.bohemiancoding.com/sketch/ns" viewBox="0 0 60 66.25" version="1.1" x="0px" y="0px"><title>6 - Motherboard (Solid)</title><desc>Created with Sketch.</desc><g stroke="none" stroke-width="1" fill="none" fill-rule="evenodd" sketch:type="MSPage"><g sketch:type="MSLayerGroup" fill="#000000"><path d="M31,41 L49,41 L49,43 L31,43 L31,41 Z" sketch:type="MSShapeGroup"/><path d="M14,41 L18,41 L18,46 L14,46 L14,41 Z" sketch:type="MSShapeGroup"/><path d="M31,45 L49,45 L49,47 L31,47 L31,45 Z" sketch:type="MSShapeGroup"/><path d="M28,41 L29,41 L29,43 L28,43 L28,41 Z" sketch:type="MSShapeGroup"/><path d="M51,37 L52,37 L52,39 L51,39 L51,37 Z" sketch:type="MSShapeGroup"/><path d="M51,41 L52,41 L52,43 L51,43 L51,41 Z" sketch:type="MSShapeGroup"/><path d="M34.709,27 L51.291,27 C51.682,27 52,26.682 52,26.291 L52,9.709 C52,9.318 51.682,9 51.291,9 L34.709,9 C34.318,9 34,9.318 34,9.709 L34,26.291 C34,26.682 34.318,27 34.709,27 L34.709,27 Z M35,20 L37,20 L37,19 L35,19 L35,17 L37,17 L37,16 L35,16 L35,14 L37,14 L37,12 L39,12 L39,10 L41,10 L41,12 L42,12 L42,10 L44,10 L44,12 L45,12 L45,10 L47,10 L47,12 L49,12 L49,14 L51,14 L51,16 L49,16 L49,17 L51,17 L51,19 L49,19 L49,20 L51,20 L51,22 L49,22 L49,24 L47,24 L47,26 L45,26 L45,24 L44,24 L44,26 L42,26 L42,24 L41,24 L41,26 L39,26 L39,24 L37,24 L37,22 L35,22 L35,20 L35,20 Z" sketch:type="MSShapeGroup"/><path d="M28,37 L29,37 L29,39 L28,39 L28,37 Z" sketch:type="MSShapeGroup"/><path d="M9,28 L12,28 L12,31 L9,31 L9,28 Z" sketch:type="MSShapeGroup"/><path d="M51,33 L52,33 L52,35 L51,35 L51,33 Z" sketch:type="MSShapeGroup"/><path d="M28,33 L29,33 L29,35 L28,35 L28,33 Z" sketch:type="MSShapeGroup"/><path d="M57,3 L57,2 C57,1.447 56.553,1 56,1 C55.447,1 55,1.447 55,2 L55,3 L54,3 L54,0 L32,0 L32,3 L31,3 L31,2 C31,1.447 30.552,1 30,1 C29.448,1 29,1.447 29,2 L29,3 L28,3 L28,2 C28,1.447 27.552,1 27,1 C26.448,1 26,1.447 26,2 L26,3 L0,3 L0,8 L4,8 C4.552,8 5,8.447 5,9 C5,9.553 4.552,10 4,10 L0,10 L0,11 L4,11 C4.552,11 5,11.447 5,12 C5,12.553 4.552,13 4,13 L0,13 L0,14 L4,14 C4.552,14 5,14.447 5,15 C5,15.553 4.552,16 4,16 L0,16 L0,36 L4,36 C4.552,36 5,36.447 5,37 C5,37.553 4.552,38 4,38 L0,38 L0,39 L4,39 C4.552,39 5,39.447 5,40 C5,40.553 4.552,41 4,41 L0,41 L0,42 L4,42 C4.552,42 5,42.447 5,43 C5,43.553 4.552,44 4,44 L0,44 L0,45 L4,45 C4.552,45 5,45.447 5,46 C5,46.553 4.552,47 4,47 L0,47 L0,48 L4,48 C4.552,48 5,48.447 5,49 C5,49.553 4.552,50 4,50 L0,50 L0,53 L60,53 L60,3 L57,3 L57,3 Z M4,31 C3.448,31 3,30.552 3,30 C3,29.448 3.448,29 4,29 C4.552,29 5,29.448 5,30 C5,30.552 4.552,31 4,31 L4,31 Z M4,28 C3.448,28 3,27.552 3,27 C3,26.448 3.448,26 4,26 C4.552,26 5,26.448 5,27 C5,27.552 4.552,28 4,28 L4,28 Z M4,25 C3.448,25 3,24.552 3,24 C3,23.448 3.448,23 4,23 C4.552,23 5,23.448 5,24 C5,24.552 4.552,25 4,25 L4,25 Z M16,35 C16.552,35 17,35.448 17,36 C17,36.552 16.552,37 16,37 C15.448,37 15,36.552 15,36 C15,35.448 15.448,35 16,35 L16,35 Z M8,5 L14,5 L14,22 L12,22 L12,23 C12,23.553 11.552,24 11,24 C10.448,24 10,23.553 10,23 L10,22 L8,22 L8,5 L8,5 Z M7,26 L14,26 L14,33 L7,33 L7,26 Z M14,36 C14,36.552 13.552,37 13,37 C12.448,37 12,36.552 12,36 C12,35.448 12.448,35 13,35 C13.552,35 14,35.448 14,36 L14,36 Z M21,44 C21.552,44 22,44.447 22,45 C22,45.553 21.552,46 21,46 L20,46 L20,48 L12,48 L12,46 L11,46 C10.448,46 10,45.553 10,45 C10,44.447 10.448,44 11,44 L12,44 L12,43 L11,43 C10.448,43 10,42.553 10,42 C10,41.447 10.448,41 11,41 L12,41 L12,39 L20,39 L20,41 L21,41 C21.552,41 22,41.447 22,42 C22,42.553 21.552,43 21,43 L20,43 L20,44 L21,44 L21,44 Z M18,36 C18,35.448 18.448,35 19,35 C19.552,35 20,35.448 20,36 C20,36.552 19.552,37 19,37 C18.448,37 18,36.552 18,36 L18,36 Z M22,28 L20,28 L20,29 C20,29.553 19.552,30 19,30 C18.448,30 18,29.553 18,29 L18,28 L16,28 L16,5 L22,5 L22,28 L22,28 Z M50,2 L52,2 L52,3 L50,3 L50,2 Z M46,2 L48,2 L48,3 L46,3 L46,2 Z M42,2 L44,2 L44,3 L42,3 L42,2 Z M38,2 L40,2 L40,3 L38,3 L38,2 Z M34,2 L36,2 L36,3 L34,3 L34,2 Z M32,9.709 C32,8.215 33.215,7 34.709,7 L51.291,7 C52.785,7 54,8.215 54,9.709 L54,26.291 C54,27.785 52.785,29 51.291,29 L34.709,29 C33.215,29 32,27.785 32,26.291 L32,9.709 L32,9.709 Z M28,12 C28.552,12 29,12.448 29,13 C29,13.552 28.552,14 28,14 C27.448,14 27,13.552 27,13 C27,12.448 27.448,12 28,12 L28,12 Z M28,15 C28.552,15 29,15.448 29,16 C29,16.552 28.552,17 28,17 C27.448,17 27,16.552 27,16 C27,15.448 27.448,15 28,15 L28,15 Z M28,18 C28.552,18 29,18.448 29,19 C29,19.552 28.552,20 28,20 C27.448,20 27,19.552 27,19 C27,18.448 27.448,18 28,18 L28,18 Z M28,21 C28.552,21 29,21.448 29,22 C29,22.552 28.552,23 28,23 C27.448,23 27,22.552 27,22 C27,21.448 27.448,21 28,21 L28,21 Z M28,24 C28.552,24 29,24.448 29,25 C29,25.552 28.552,26 28,26 C27.448,26 27,25.552 27,25 C27,24.448 27.448,24 28,24 L28,24 Z M28,27 C28.552,27 29,27.448 29,28 C29,28.552 28.552,29 28,29 C27.448,29 27,28.552 27,28 C27,27.448 27.448,27 28,27 L28,27 Z M25,14 C25.552,14 26,14.448 26,15 C26,15.552 25.552,16 25,16 C24.448,16 24,15.552 24,15 C24,14.448 24.448,14 25,14 L25,14 Z M25,18 C25.552,18 26,18.448 26,19 C26,19.552 25.552,20 25,20 C24.448,20 24,19.552 24,19 C24,18.448 24.448,18 25,18 L25,18 Z M55,37 C55.553,37 56,37.447 56,38 C56,38.553 55.553,39 55,39 L54,39 L54,41 L55,41 C55.553,41 56,41.447 56,42 C56,42.553 55.553,43 55,43 L54,43 L54,45 L55,45 C55.553,45 56,45.447 56,46 C56,46.553 55.553,47 55,47 L54,47 L54,49 L26,49 L26,47 L25,47 C24.448,47 24,46.553 24,46 C24,45.447 24.448,45 25,45 L26,45 L26,43 L25,43 C24.448,43 24,42.553 24,42 C24,41.447 24.448,41 25,41 L26,41 L26,39 L25,39 C24.448,39 24,38.553 24,38 C24,37.447 24.448,37 25,37 L26,37 L26,35 L25,35 C24.448,35 24,34.553 24,34 C24,33.447 24.448,33 25,33 L26,33 L26,31 L54,31 L54,33 L55,33 C55.553,33 56,33.447 56,34 C56,34.553 55.553,35 55,35 L54,35 L54,37 L55,37 L55,37 Z M56,23 C55.448,23 55,22.552 55,22 C55,21.448 55.448,21 56,21 C56.552,21 57,21.448 57,22 C57,22.552 56.552,23 56,23 L56,23 Z M56,16 C55.448,16 55,15.552 55,15 C55,14.448 55.448,14 56,14 C56.552,14 57,14.448 57,15 C57,15.552 56.552,16 56,16 L56,16 Z" sketch:type="MSShapeGroup"/><path d="M10,7 L12,7 L12,20 L10,20 L10,7 Z" sketch:type="MSShapeGroup"/><path d="M18,7 L20,7 L20,26 L18,26 L18,7 Z" sketch:type="MSShapeGroup"/><path d="M51,45 L52,45 L52,47 L51,47 L51,45 Z" sketch:type="MSShapeGroup"/><path d="M31,37 L49,37 L49,39 L31,39 L31,37 Z" sketch:type="MSShapeGroup"/><path d="M28,45 L29,45 L29,47 L28,47 L28,45 Z" sketch:type="MSShapeGroup"/><path d="M31,33 L49,33 L49,35 L31,35 L31,33 Z" sketch:type="MSShapeGroup"/><path d="M39,14 L47,14 L47,22 L39,22 L39,14 Z" sketch:type="MSShapeGroup"/></g></g><text x="0" y="68" fill="#000000" font-size="5px" font-weight="bold" font-family="'Helvetica Neue', Helvetica, Arial-Unicode, Arial, Sans-serif">Created by Oliviu Stoian</text><text x="0" y="73" fill="#000000" font-size="5px" font-weight="bold" font-family="'Helvetica Neue', Helvetica, Arial-Unicode, Arial, Sans-serif">from the Noun Project</text></svg>