<svg xmlns="http://www.w3.org/2000/svg" xmlns:xlink="http://www.w3.org/1999/xlink" xmlns:sketch="http://www.bohemiancoding.com/sketch/ns" viewBox="0 0 40 75" version="1.1" x="0px" y="0px"><title>24 - PC (Solid)</title><desc>Created with Sketch.</desc><g stroke="none" stroke-width="1" fill="none" fill-rule="evenodd" sketch:type="MSPage"><g sketch:type="MSLayerGroup" fill="#000000"><path d="M31,35 C29.898,35 29,35.898 29,37 C29,38.103 29.898,39 31,39 C32.102,39 33,38.103 33,37 C33,35.898 32.102,35 31,35" sketch:type="MSShapeGroup"/><path d="M36.592,0 L3.408,0 C1.529,0 0,1.529 0,3.408 L0,56.592 C0,58.471 1.529,60 3.408,60 L36.592,60 C38.471,60 40,58.471 40,56.592 L40,3.408 C40,1.529 38.471,0 36.592,0 L36.592,0 Z M6,51 C6,50.447 6.447,50 7,50 L9,50 C9.553,50 10,50.447 10,51 C10,51.553 9.553,52 9,52 L7,52 C6.447,52 6,51.553 6,51 L6,51 Z M9,48 C9,47.447 9.447,47 10,47 L12,47 C12.553,47 13,47.447 13,48 C13,48.553 12.553,49 12,49 L10,49 C9.447,49 9,48.553 9,48 L9,48 Z M12,55 L10,55 C9.447,55 9,54.553 9,54 C9,53.447 9.447,53 10,53 L12,53 C12.553,53 13,53.447 13,54 C13,54.553 12.553,55 12,55 L12,55 Z M12,51 C12,50.447 12.447,50 13,50 L15,50 C15.553,50 16,50.447 16,51 C16,51.553 15.553,52 15,52 L13,52 C12.447,52 12,51.553 12,51 L12,51 Z M15,48 C15,47.447 15.447,47 16,47 L18,47 C18.553,47 19,47.447 19,48 C19,48.553 18.553,49 18,49 L16,49 C15.447,49 15,48.553 15,48 L15,48 Z M18,55 L16,55 C15.447,55 15,54.553 15,54 C15,53.447 15.447,53 16,53 L18,53 C18.553,53 19,53.447 19,54 C19,54.553 18.553,55 18,55 L18,55 Z M18,51 C18,50.447 18.447,50 19,50 L21,50 C21.553,50 22,50.447 22,51 C22,51.553 21.553,52 21,52 L19,52 C18.447,52 18,51.553 18,51 L18,51 Z M21,48 C21,47.447 21.447,47 22,47 L24,47 C24.553,47 25,47.447 25,48 C25,48.553 24.553,49 24,49 L22,49 C21.447,49 21,48.553 21,48 L21,48 Z M24,55 L22,55 C21.447,55 21,54.553 21,54 C21,53.447 21.447,53 22,53 L24,53 C24.553,53 25,53.447 25,54 C25,54.553 24.553,55 24,55 L24,55 Z M24,51 C24,50.447 24.447,50 25,50 L27,50 C27.553,50 28,50.447 28,51 C28,51.553 27.553,52 27,52 L25,52 C24.447,52 24,51.553 24,51 L24,51 Z M27,48 C27,47.447 27.447,47 28,47 L30,47 C30.553,47 31,47.447 31,48 C31,48.553 30.553,49 30,49 L28,49 C27.447,49 27,48.553 27,48 L27,48 Z M30,55 L28,55 C27.447,55 27,54.553 27,54 C27,53.447 27.447,53 28,53 L30,53 C30.553,53 31,53.447 31,54 C31,54.553 30.553,55 30,55 L30,55 Z M33,52 L31,52 C30.447,52 30,51.553 30,51 C30,50.447 30.447,50 31,50 L33,50 C33.553,50 34,50.447 34,51 C34,51.553 33.553,52 33,52 L33,52 Z M31,41 C28.794,41 27,39.206 27,37 C27,34.794 28.794,33 31,33 C33.206,33 35,34.794 35,37 C35,39.206 33.206,41 31,41 L31,41 Z M35,13 L35,31 L5,31 L5,5 L35,5 L35,13 L35,13 Z" sketch:type="MSShapeGroup"/><path d="M7,23 L33,23 L33,29 L7,29 L7,23 Z" sketch:type="MSShapeGroup"/><path d="M7,15 L33,15 L33,21 L7,21 L7,15 Z" sketch:type="MSShapeGroup"/><path d="M7,7 L33,7 L33,13 L7,13 L7,7 Z" sketch:type="MSShapeGroup"/></g></g></svg>
