<svg xmlns="http://www.w3.org/2000/svg" xmlns:xlink="http://www.w3.org/1999/xlink" xmlns:sketch="http://www.bohemiancoding.com/sketch/ns" viewBox="0 0 60 57.5" version="1.1" x="0px" y="0px"><title>20 - Routers (Solid)</title><desc>Created with Sketch.</desc><g stroke="none" stroke-width="1" fill="none" fill-rule="evenodd" sketch:type="MSPage"><g sketch:type="MSLayerGroup" fill="#000000"><path d="M53,9 C51.897,9 51,9.898 51,11 C51,12.103 51.897,13 53,13 C54.103,13 55,12.103 55,11 C55,9.898 54.103,9 53,9" sketch:type="MSShapeGroup"/><path d="M51,31 C51,32.103 51.897,33 53,33 C54.103,33 55,32.103 55,31 C55,29.897 54.103,29 53,29 C51.897,29 51,29.897 51,31" sketch:type="MSShapeGroup"/><path d="M60,13.975 L60,8.026 C60,5.953 58.42,4.262 56.406,4.044 L52.079,0.582 C51.609,0.207 51.019,0 50.417,0 L9.582,0 C8.981,0 8.391,0.207 7.921,0.582 L3.594,4.044 C1.58,4.262 0,5.953 0,8.026 L0,13.975 C0,16.047 1.58,17.738 3.594,17.957 L7.398,21 L3.594,24.044 C1.58,24.262 0,25.953 0,28.025 L0,33.975 C0,36.047 1.58,37.738 3.594,37.956 L7.921,41.418 C8.237,41.67 8.609,41.838 9,41.927 L9,44.11 C9,45.152 9.848,46 10.89,46 L17.11,46 C18.152,46 19,45.152 19,44.11 L19,42 L41,42 L41,44.11 C41,45.152 41.848,46 42.89,46 L49.11,46 C50.152,46 51,45.152 51,44.11 L51,41.927 C51.391,41.838 51.763,41.67 52.079,41.418 L56.406,37.956 C58.42,37.738 60,36.047 60,33.975 L60,28.025 C60,25.953 58.42,24.262 56.406,24.044 L52.601,21 L56.406,17.957 C58.42,17.738 60,16.047 60,13.975 L60,13.975 Z M9.17,2.145 C9.286,2.052 9.433,2 9.582,2 L50.417,2 C50.567,2 50.714,2.052 50.83,2.145 L53.149,4 L6.851,4 L9.17,2.145 L9.17,2.145 Z M31,9 C30.448,9 30,8.552 30,8 C30,7.448 30.448,7 31,7 C31.552,7 32,7.448 32,8 C32,8.552 31.552,9 31,9 L31,9 Z M32,14 C32,14.552 31.552,15 31,15 C30.448,15 30,14.552 30,14 C30,13.448 30.448,13 31,13 C31.552,13 32,13.448 32,14 L32,14 Z M33,10 C33.552,10 34,10.448 34,11 C34,11.552 33.552,12 33,12 C32.448,12 32,11.552 32,11 C32,10.448 32.448,10 33,10 L33,10 Z M35,13 C35.552,13 36,13.448 36,14 C36,14.552 35.552,15 35,15 C34.448,15 34,14.552 34,14 C34,13.448 34.448,13 35,13 L35,13 Z M35,9 C34.448,9 34,8.552 34,8 C34,7.448 34.448,7 35,7 C35.552,7 36,7.448 36,8 C36,8.552 35.552,9 35,9 L35,9 Z M37,10 C37.552,10 38,10.448 38,11 C38,11.552 37.552,12 37,12 C36.448,12 36,11.552 36,11 C36,10.448 36.448,10 37,10 L37,10 Z M39,13 C39.552,13 40,13.448 40,14 C40,14.552 39.552,15 39,15 C38.448,15 38,14.552 38,14 C38,13.448 38.448,13 39,13 L39,13 Z M39,9 C38.448,9 38,8.552 38,8 C38,7.448 38.448,7 39,7 C39.552,7 40,7.448 40,8 C40,8.552 39.552,9 39,9 L39,9 Z M23,10 L20,10 C19.448,10 19,9.553 19,9 C19,8.447 19.448,8 20,8 L23,8 C23.552,8 24,8.447 24,9 C24,9.553 23.552,10 23,10 L23,10 Z M24,13 C24,13.553 23.552,14 23,14 L20,14 C19.448,14 19,13.553 19,13 C19,12.447 19.448,12 20,12 L23,12 C23.552,12 24,12.447 24,13 L24,13 Z M16,10 L13,10 C12.448,10 12,9.553 12,9 C12,8.447 12.448,8 13,8 L16,8 C16.552,8 17,8.447 17,9 C17,9.553 16.552,10 16,10 L16,10 Z M17,13 C17,13.553 16.552,14 16,14 L13,14 C12.448,14 12,13.553 12,13 C12,12.447 12.448,12 13,12 L16,12 C16.552,12 17,12.447 17,13 L17,13 Z M6,8 L9,8 C9.552,8 10,8.447 10,9 C10,9.553 9.552,10 9,10 L6,10 C5.448,10 5,9.553 5,9 C5,8.447 5.448,8 6,8 L6,8 Z M5,13 C5,12.447 5.448,12 6,12 L9,12 C9.552,12 10,12.447 10,13 C10,13.553 9.552,14 9,14 L6,14 C5.448,14 5,13.553 5,13 L5,13 Z M6,28 L9,28 C9.552,28 10,28.447 10,29 C10,29.553 9.552,30 9,30 L6,30 C5.448,30 5,29.553 5,29 C5,28.447 5.448,28 6,28 L6,28 Z M5,33 C5,32.447 5.448,32 6,32 L9,32 C9.552,32 10,32.447 10,33 C10,33.553 9.552,34 9,34 L6,34 C5.448,34 5,33.553 5,33 L5,33 Z M50.83,39.855 C50.714,39.948 50.567,40 50.417,40 L9.582,40 C9.433,40 9.286,39.948 9.17,39.855 L6.851,38 L53.149,38 L50.83,39.855 L50.83,39.855 Z M13,32 L16,32 C16.552,32 17,32.447 17,33 C17,33.553 16.552,34 16,34 L13,34 C12.448,34 12,33.553 12,33 C12,32.447 12.448,32 13,32 L13,32 Z M12,29 C12,28.447 12.448,28 13,28 L16,28 C16.552,28 17,28.447 17,29 C17,29.553 16.552,30 16,30 L13,30 C12.448,30 12,29.553 12,29 L12,29 Z M20,32 L23,32 C23.552,32 24,32.447 24,33 C24,33.553 23.552,34 23,34 L20,34 C19.448,34 19,33.553 19,33 C19,32.447 19.448,32 20,32 L20,32 Z M19,29 C19,28.447 19.448,28 20,28 L23,28 C23.552,28 24,28.447 24,29 C24,29.553 23.552,30 23,30 L20,30 C19.448,30 19,29.553 19,29 L19,29 Z M39,33 C39.552,33 40,33.448 40,34 C40,34.552 39.552,35 39,35 C38.448,35 38,34.552 38,34 C38,33.448 38.448,33 39,33 L39,33 Z M38,28 C38,27.448 38.448,27 39,27 C39.552,27 40,27.448 40,28 C40,28.552 39.552,29 39,29 C38.448,29 38,28.552 38,28 L38,28 Z M37,32 C36.448,32 36,31.552 36,31 C36,30.448 36.448,30 37,30 C37.552,30 38,30.448 38,31 C38,31.552 37.552,32 37,32 L37,32 Z M35,29 C34.448,29 34,28.552 34,28 C34,27.448 34.448,27 35,27 C35.552,27 36,27.448 36,28 C36,28.552 35.552,29 35,29 L35,29 Z M35,33 C35.552,33 36,33.448 36,34 C36,34.552 35.552,35 35,35 C34.448,35 34,34.552 34,34 C34,33.448 34.448,33 35,33 L35,33 Z M33,32 C32.448,32 32,31.552 32,31 C32,30.448 32.448,30 33,30 C33.552,30 34,30.448 34,31 C34,31.552 33.552,32 33,32 L33,32 Z M31,29 C30.448,29 30,28.552 30,28 C30,27.448 30.448,27 31,27 C31.552,27 32,27.448 32,28 C32,28.552 31.552,29 31,29 L31,29 Z M31,33 C31.552,33 32,33.448 32,34 C32,34.552 31.552,35 31,35 C30.448,35 30,34.552 30,34 C30,33.448 30.448,33 31,33 L31,33 Z M57,31 C57,33.206 55.206,35 53,35 C50.794,35 49,33.206 49,31 C49,28.794 50.794,27 53,27 C55.206,27 57,28.794 57,31 L57,31 Z M53.149,24 L6.851,24 L9.17,22.145 C9.286,22.052 9.433,22 9.582,22 L50.417,22 C50.567,22 50.714,22.052 50.83,22.145 L53.149,24 L53.149,24 Z M50.83,19.856 C50.714,19.948 50.567,20 50.417,20 L9.582,20 C9.433,20 9.286,19.948 9.17,19.856 L6.851,18 L53.149,18 L50.83,19.856 L50.83,19.856 Z M53,15 C50.794,15 49,13.206 49,11 C49,8.794 50.794,7 53,7 C55.206,7 57,8.794 57,11 C57,13.206 55.206,15 53,15 L53,15 Z" sketch:type="MSShapeGroup"/></g></g></svg>
