<svg xmlns="http://www.w3.org/2000/svg" xmlns:xlink="http://www.w3.org/1999/xlink" xmlns:sketch="http://www.bohemiancoding.com/sketch/ns" viewBox="0 0 60 55" version="1.1" x="0px" y="0px"><title>5 - SSD (Solid)</title><desc>Created with Sketch.</desc><g stroke="none" stroke-width="1" fill="none" fill-rule="evenodd" sketch:type="MSPage"><g sketch:type="MSLayerGroup" fill="#000000"><path d="M5,4 C4.448,4 4,4.448 4,5 C4,5.552 4.448,6 5,6 C5.552,6 6,5.552 6,5 C6,4.448 5.552,4 5,4" sketch:type="MSShapeGroup"/><path d="M4,20 L6,20 L6,22 L4,22 L4,20 Z" sketch:type="MSShapeGroup"/><path d="M4,17 L6,17 L6,19 L4,19 L4,17 Z" sketch:type="MSShapeGroup"/><path d="M4,14 L6,14 L6,16 L4,16 L4,14 Z" sketch:type="MSShapeGroup"/><path d="M4,11 L6,11 L6,13 L4,13 L4,11 Z" sketch:type="MSShapeGroup"/><path d="M4,8 L6,8 L6,10 L4,10 L4,8 Z" sketch:type="MSShapeGroup"/><path d="M10,6 L23,6 L23,8 L10,8 L10,6 Z" sketch:type="MSShapeGroup"/><path d="M10,9 L20,9 L20,11 L10,11 L10,9 Z" sketch:type="MSShapeGroup"/><path d="M10,12 L21,12 L21,14 L10,14 L10,12 Z" sketch:type="MSShapeGroup"/><path d="M10,15 L14,15 L14,17 L10,17 L10,15 Z" sketch:type="MSShapeGroup"/><path d="M39.841,25.937 C38.617,25.937 37.302,26.232 36.036,26.787 C34.386,27.513 33.024,28.589 32.2,29.818 C31.47,30.909 31.269,31.971 31.636,32.806 C32.099,33.858 33.445,34.485 35.24,34.485 C36.464,34.485 37.779,34.192 39.044,33.636 C42.245,32.23 44.26,29.474 43.444,27.618 C42.982,26.566 41.635,25.937 39.841,25.937" sketch:type="MSShapeGroup"/><path d="M54.465,36 L52,32.303 L52,10 L60,10 L60,3.089 C60,1.386 58.614,0 56.911,0 L3.089,0 C1.386,0 0,1.386 0,3.089 L0,40.911 C0,42.614 1.386,44 3.089,44 L56.911,44 C58.614,44 60,42.614 60,40.911 L60,36 L54.465,36 L54.465,36 Z M55,4 C55.552,4 56,4.448 56,5 C56,5.552 55.552,6 55,6 C54.448,6 54,5.552 54,5 C54,4.448 54.448,4 55,4 L55,4 Z M5,40 C4.448,40 4,39.552 4,39 C4,38.448 4.448,38 5,38 C5.552,38 6,38.448 6,39 C6,39.552 5.552,40 5,40 L5,40 Z M9,24 L2,24 L2,3.089 C2,2.488 2.488,2 3.089,2 L31.978,2 C31.453,14.22 21.347,24 9,24 L9,24 Z M39.849,35.467 C38.332,36.134 36.738,36.485 35.24,36.485 C32.628,36.485 30.596,35.411 29.805,33.61 C29.153,32.127 29.414,30.385 30.539,28.705 C31.571,27.163 33.238,25.832 35.231,24.956 C36.749,24.29 38.343,23.938 39.841,23.938 C42.452,23.938 44.484,25.013 45.275,26.813 C46.57,29.76 44.186,33.562 39.849,35.467 L39.849,35.467 Z M55,40 C54.448,40 54,39.552 54,39 C54,38.448 54.448,38 55,38 C55.552,38 56,38.448 56,39 C56,39.552 55.552,40 55,40 L55,40 Z" sketch:type="MSShapeGroup"/><path d="M54,31.697 L55.535,34 L60,34 L60,33 L56,33 L56,31 L60,31 L60,30 L55,30 L55,28 L60,28 L60,24 L55,24 L55,22 L60,22 L60,21 L55,21 L55,19 L60,19 L60,18 L55,18 L55,16 L60,16 L60,15 L55,15 L55,13 L60,13 L60,12 L54,12 L54,31.697" sketch:type="MSShapeGroup"/></g></g></svg>
