<svg xmlns="http://www.w3.org/2000/svg" xmlns:xlink="http://www.w3.org/1999/xlink" xmlns:sketch="http://www.bohemiancoding.com/sketch/ns" viewBox="0 0 60 55" version="1.1" x="0px" y="0px"><title>2 - Video Card (Solid)</title><desc>Created with Sketch.</desc><g stroke="none" stroke-width="1" fill="none" fill-rule="evenodd" sketch:type="MSPage"><g sketch:type="MSLayerGroup" fill="#000000"><path d="M24.604,33 C24.252,32.604 23.912,32.188 23.588,31.753 C21.687,29.564 20.433,26.391 20.099,22.873 C20.028,22.118 20,21.548 20,21 C20,20.452 20.028,19.882 20.09,19.206 C20.433,15.609 21.687,12.436 23.633,10.19 C23.937,9.783 24.262,9.385 24.604,9 L17,9 C12.589,9 9,14.383 9,21 C9,27.617 12.589,33 17,33 L24.604,33" sketch:type="MSShapeGroup"/><path d="M41.95,21.223 C42.005,20.805 41.925,20.392 41.741,20.036 C41.739,20.032 41.737,20.028 41.735,20.024 C41.656,19.874 41.55,19.741 41.436,19.616 L41.176,19.409 C41.023,19.287 40.85,19.195 40.67,19.124 C40.639,19.113 40.608,19.105 40.577,19.095 C40.47,19.059 40.359,19.043 40.248,19.025 C40.166,19.015 40.085,19 40,19 C38.897,19 38,19.898 38,21 C38,21.957 38.677,22.758 39.577,22.953 C39.59,22.956 39.603,22.959 39.616,22.961 C39.74,22.986 39.868,23 40,23 C40.205,23 40.399,22.96 40.585,22.903 L40.665,22.874 C41.249,22.667 41.687,22.205 41.883,21.647 C41.89,21.626 41.896,21.605 41.903,21.584 L41.95,21.223" sketch:type="MSShapeGroup"/><path d="M44.96,9 L35.04,9 C30.224,10.993 27,15.791 27,21 C27,26.209 30.224,31.007 35.04,33 L44.96,33 C49.776,31.007 53,26.209 53,21 C53,15.791 49.776,10.993 44.96,9 L44.96,9 Z M48.758,27.652 L48.411,28.056 L47.883,27.993 C46.484,27.828 45.002,27.247 43.726,26.614 C44.112,27.286 44.574,27.836 45.013,28.205 C45.477,28.597 45.695,29.206 45.582,29.796 C45.471,30.382 45.064,30.846 44.497,31.036 C43.136,31.493 41.201,32.037 39.719,32.037 C39.456,32.037 39.208,32.021 38.98,31.985 L38.455,31.904 L38.228,31.424 C37.598,30.089 37.305,28.435 37.175,26.966 C36.743,27.693 36.484,28.433 36.386,29.042 C36.255,29.857 35.568,30.45 34.752,30.45 L34.751,30.45 C34.366,30.45 33.991,30.311 33.694,30.057 C32.35,28.911 30.624,27.246 30.039,25.818 L29.838,25.326 L30.133,24.884 C31.081,23.464 32.629,22.207 33.966,21.293 C33.627,21.239 33.284,21.205 32.937,21.205 C32.31,21.205 31.7,21.296 31.173,21.466 C31.004,21.521 30.828,21.548 30.651,21.548 C30.14,21.548 29.665,21.318 29.349,20.919 C29.039,20.526 28.929,20.02 29.046,19.529 C29.457,17.809 30.159,15.515 31.164,14.348 L31.511,13.944 L32.039,14.007 C33.438,14.172 34.92,14.753 36.195,15.386 C35.809,14.714 35.348,14.164 34.909,13.795 C34.445,13.403 34.227,12.793 34.339,12.203 C34.451,11.617 34.857,11.154 35.426,10.964 C37.025,10.426 39.426,9.778 40.941,10.015 L41.467,10.096 L41.693,10.576 C42.323,11.911 42.617,13.566 42.746,15.035 C43.178,14.308 43.437,13.568 43.535,12.959 C43.667,12.142 44.354,11.55 45.17,11.55 C45.555,11.55 45.93,11.69 46.227,11.943 C47.572,13.09 49.299,14.756 49.882,16.182 L50.083,16.674 L49.788,17.116 C48.84,18.536 47.292,19.793 45.956,20.707 C46.295,20.761 46.638,20.794 46.984,20.794 C47.611,20.794 48.221,20.704 48.748,20.534 C49.407,20.321 50.147,20.544 50.573,21.081 C50.883,21.474 50.993,21.981 50.876,22.471 C50.465,24.191 49.763,26.485 48.758,27.652 L48.758,27.652 Z" sketch:type="MSShapeGroup"/><path d="M5,4 L5,1 C5,0.447 4.553,0 4,0 L1,0 C0.447,0 0,0.447 0,1 C0,1.553 0.447,2 1,2 L3,2 L3,7 L0,7 L0,13 L3,13 L3,16 L2,16 C1.447,16 1,16.447 1,17 C1,17.553 1.447,18 2,18 L3,18 L3,19 L0,19 L0,34 L3,34 L3,35 L2,35 C1.447,35 1,35.447 1,36 C1,36.553 1.447,37 2,37 L3,37 L3,43 C3,43.553 3.447,44 4,44 C4.553,44 5,43.553 5,43 L5,38 L11,38 L11,42 L37,42 L37,38 L60,38 L60,4 L5,4 L5,4 Z M2,21 L3,21 L3,32 L2,32 L2,21 Z M2,9 L3,9 L3,11 L2,11 L2,9 Z M7,7 C7.552,7 8,7.448 8,8 C8,8.552 7.552,9 7,9 C6.448,9 6,8.552 6,8 C6,7.448 6.448,7 7,7 L7,7 Z M7,35 C6.448,35 6,34.552 6,34 C6,33.448 6.448,33 7,33 C7.552,33 8,33.448 8,34 C8,34.552 7.552,35 7,35 L7,35 Z M7,21 C7,13.28 11.486,7 17,7 L29.796,7 L27.701,8.765 C26.791,9.531 25.946,10.433 25.189,11.444 C23.47,13.434 22.385,16.209 22.089,19.316 C22.026,20.002 22,20.514 22,21 C22,21.486 22.026,21.998 22.082,22.612 C22.385,25.791 23.47,28.567 25.144,30.499 C25.946,31.567 26.791,32.469 27.701,33.235 L29.796,35 L17,35 C11.486,35 7,28.72 7,21 L7,21 Z M35,40 L34,40 L34,39 L32,39 L32,40 L31,40 L31,39 L29,39 L29,40 L28,40 L28,39 L26,39 L26,40 L25,40 L25,39 L23,39 L23,40 L22,40 L22,39 L20,39 L20,40 L19,40 L19,39 L17,39 L17,40 L16,40 L16,39 L14,39 L14,40 L13,40 L13,38 L35,38 L35,40 L35,40 Z M45.523,34.93 L45.346,35 L34.654,35 L34.477,34.93 C28.809,32.682 25,27.084 25,21 C25,14.916 28.809,9.318 34.477,7.07 L34.654,7 L45.346,7 L45.523,7.07 C51.191,9.318 55,14.916 55,21 C55,27.084 51.191,32.682 45.523,34.93 L45.523,34.93 Z M56,35 C55.448,35 55,34.552 55,34 C55,33.448 55.448,33 56,33 C56.552,33 57,33.448 57,34 C57,34.552 56.552,35 56,35 L56,35 Z M56,9 C55.448,9 55,8.552 55,8 C55,7.448 55.448,7 56,7 C56.552,7 57,7.448 57,8 C57,8.552 56.552,9 56,9 L56,9 Z" sketch:type="MSShapeGroup"/></g></g><text x="0" y="59" fill="#000000" font-size="5px" font-weight="bold" font-family="'Helvetica Neue', Helvetica, Arial-Unicode, Arial, Sans-serif">Created by Oliviu Stoian</text><text x="0" y="64" fill="#000000" font-size="5px" font-weight="bold" font-family="'Helvetica Neue', Helvetica, Arial-Unicode, Arial, Sans-serif">from the Noun Project</text></svg>