<?xml version="1.0" encoding="UTF-8" standalone="no"?>
<svg width="40px" height="40px" viewBox="0 0 40 40" version="1.1" xmlns="http://www.w3.org/2000/svg" xmlns:xlink="http://www.w3.org/1999/xlink">
    <!-- Generator: sketchtool 3.8.2 (29753) - http://www.bohemiancoding.com/sketch -->
    <title>147464A3-0844-4C62-A850-9D9664E1EBC5</title>
    <desc>Created with sketchtool.</desc>
    <defs></defs>
    <g id="Page-1" stroke="none" stroke-width="1" fill="none" fill-rule="evenodd">
        <g id="System-Information" transform="translate(-1215.000000, -123.000000)" fill="#000000">
            <g id="CPU" transform="translate(1050.000000, 70.000000)">
                <g id="Icon" transform="translate(165.000000, 53.000000)">
                    <circle id="Oval" cx="2.66666667" cy="34" r="0.666666667"></circle>
                    <circle id="Oval" cx="2.66666667" cy="37.3333333" r="0.666666667"></circle>
                    <circle id="Oval" cx="37.3333333" cy="2.66666667" r="0.666666667"></circle>
                    <circle id="Oval" cx="37.3333333" cy="37.3333333" r="0.666666667"></circle>
                    <circle id="Oval" cx="4" cy="32.6666667" r="0.666666667"></circle>
                    <circle id="Oval" cx="36" cy="23.3333333" r="0.666666667"></circle>
                    <circle id="Oval" cx="37.3333333" cy="24.6666667" r="0.666666667"></circle>
                    <circle id="Oval" cx="36" cy="30" r="0.666666667"></circle>
                    <circle id="Oval" cx="37.3333333" cy="31.3333333" r="0.666666667"></circle>
                    <circle id="Oval" cx="36" cy="16.6666667" r="0.666666667"></circle>
                    <circle id="Oval" cx="37.3333333" cy="18" r="0.666666667"></circle>
                    <circle id="Oval" cx="2.66666667" cy="30.6666667" r="0.666666667"></circle>
                    <circle id="Oval" cx="4" cy="29.3333333" r="0.666666667"></circle>
                    <circle id="Oval" cx="2.66666667" cy="27.3333333" r="0.666666667"></circle>
                    <circle id="Oval" cx="4" cy="26" r="0.666666667"></circle>
                    <circle id="Oval" cx="2.66666667" cy="24" r="0.666666667"></circle>
                    <circle id="Oval" cx="4" cy="22.6666667" r="0.666666667"></circle>
                    <circle id="Oval" cx="2.66666667" cy="20.6666667" r="0.666666667"></circle>
                    <circle id="Oval" cx="4" cy="19.3333333" r="0.666666667"></circle>
                    <circle id="Oval" cx="2.66666667" cy="17.3333333" r="0.666666667"></circle>
                    <circle id="Oval" cx="4" cy="16" r="0.666666667"></circle>
                    <circle id="Oval" cx="2.66666667" cy="7.33333333" r="0.666666667"></circle>
                    <circle id="Oval" cx="11.3333333" cy="2.66666667" r="0.666666667"></circle>
                    <circle id="Oval" cx="8.66666667" cy="2.66666667" r="0.666666667"></circle>
                    <circle id="Oval" cx="2.66666667" cy="9.33333333" r="0.666666667"></circle>
                    <path d="M32.6666667,0 L32.6666667,0.666666667 C32.6666667,2.14 31.4733333,3.33333333 30,3.33333333 C28.5266667,3.33333333 27.3333333,2.14 27.3333333,0.666666667 L27.3333333,0 L7.60666667,0 L0,0 L0,7.60666667 L0,40 L27.3333333,40 L27.3333333,39.3333333 C27.3333333,37.86 28.5266667,36.6666667 30,36.6666667 C31.4733333,36.6666667 32.6666667,37.86 32.6666667,39.3333333 L32.6666667,40 L40,40 L40,0 L32.6666667,0 L32.6666667,0 Z M1.33333333,1.33333333 L4.39333333,1.33333333 L1.33333333,4.39333333 L1.33333333,1.33333333 L1.33333333,1.33333333 Z M38.6666667,38.6666667 L33.9466667,38.6666667 C33.6266667,36.78 31.98,35.3333333 30,35.3333333 C28.02,35.3333333 26.3733333,36.78 26.0533333,38.6666667 L1.33333333,38.6666667 L1.33333333,6.27333333 L6.27333333,1.33333333 L26.0533333,1.33333333 C26.3733333,3.22 28.02,4.66666667 30,4.66666667 C31.98,4.66666667 33.6266667,3.22 33.9466667,1.33333333 L38.6666667,1.33333333 L38.6666667,38.6666667 L38.6666667,38.6666667 Z" id="Shape"></path>
                    <path d="M29.3533333,6.66666667 L10.6466667,6.66666667 C8.45333333,6.66666667 6.66666667,8.45333333 6.66666667,10.6466667 L6.66666667,14.3333333 C6.66666667,15.2533333 7.41333333,16 8.33333333,16 C8.52,16 8.66666667,16.1466667 8.66666667,16.3333333 L8.66666667,23.6666667 C8.66666667,23.8533333 8.52,24 8.33333333,24 C7.41333333,24 6.66666667,24.7466667 6.66666667,25.6666667 L6.66666667,29.3533333 C6.66666667,31.5466667 8.45333333,33.3333333 10.6466667,33.3333333 L29.36,33.3333333 C31.5533333,33.3333333 33.34,31.5466667 33.34,29.3533333 L33.34,10.6466667 C33.3333333,8.45333333 31.5466667,6.66666667 29.3533333,6.66666667 L29.3533333,6.66666667 Z M10,23.6666667 L10,16.3333333 L10,11.54 C10,10.6866667 10.6933333,10 11.54,10 L28.46,10 C29.3066667,10 30,10.6933333 30,11.54 L30,28.46 C30,29.3133333 29.3066667,30 28.46,30 L11.54,30 C10.6933333,30 10,29.3066667 10,28.46 L10,23.6666667 L10,23.6666667 Z M32,29.3533333 C32,30.8133333 30.8133333,32 29.3533333,32 L10.6466667,32 C9.18666667,32 8,30.8133333 8,29.3533333 L8,25.6666667 C8,25.48 8.14666667,25.3333333 8.33333333,25.3333333 C8.44666667,25.3333333 8.56,25.32 8.66666667,25.3 L8.66666667,28.46 C8.66666667,30.0466667 9.95333333,31.3333333 11.54,31.3333333 L28.46,31.3333333 C30.0466667,31.3333333 31.3333333,30.0466667 31.3333333,28.46 L31.3333333,11.54 C31.3333333,9.95333333 30.0466667,8.66666667 28.46,8.66666667 L11.54,8.66666667 C9.95333333,8.66666667 8.66666667,9.95333333 8.66666667,11.54 L8.66666667,14.7 C8.56,14.68 8.44666667,14.6666667 8.33333333,14.6666667 C8.14666667,14.6666667 8,14.52 8,14.3333333 L8,10.6466667 C8,9.18666667 9.18666667,8 10.6466667,8 L29.36,8 C30.82,8 32.0066667,9.18666667 32.0066667,10.6466667 L32.0066667,29.3533333 L32,29.3533333 Z" id="Shape"></path>
                    <circle id="Oval" cx="24.6666667" cy="37.3333333" r="0.666666667"></circle>
                    <circle id="Oval" cx="23.3333333" cy="36" r="0.666666667"></circle>
                    <circle id="Oval" cx="21.3333333" cy="37.3333333" r="0.666666667"></circle>
                    <circle id="Oval" cx="20" cy="36" r="0.666666667"></circle>
                    <circle id="Oval" cx="18" cy="37.3333333" r="0.666666667"></circle>
                    <circle id="Oval" cx="16.6666667" cy="36" r="0.666666667"></circle>
                    <circle id="Oval" cx="14.6666667" cy="37.3333333" r="0.666666667"></circle>
                    <circle id="Oval" cx="13.3333333" cy="36" r="0.666666667"></circle>
                    <circle id="Oval" cx="11.3333333" cy="37.3333333" r="0.666666667"></circle>
                    <circle id="Oval" cx="10" cy="36" r="0.666666667"></circle>
                    <circle id="Oval" cx="8" cy="37.3333333" r="0.666666667"></circle>
                    <circle id="Oval" cx="6.66666667" cy="36" r="0.666666667"></circle>
                    <path d="M18.04,26 C19.4733333,26 20.9933333,25.66 22.4466667,25.0266667 C24.3533333,24.1866667 25.9466667,22.92 26.9333333,21.4466667 C27.98,19.8866667 28.2266667,18.28 27.6266667,16.92 C26.9,15.2666667 25.0066667,14.28 22.5666667,14.28 C21.1333333,14.28 19.6133333,14.62 18.16,15.2533333 C16.2533333,16.0933333 14.66,17.36 13.6733333,18.8333333 C12.6266667,20.3933333 12.38,22 12.98,23.36 C13.7066667,25.0133333 15.6,26 18.04,26 L18.04,26 Z M14.7866667,19.58 C15.6333333,18.32 17.02,17.22 18.7,16.48 C19.9866667,15.9133333 21.3266667,15.6133333 22.5733333,15.6133333 C24.4733333,15.6133333 25.9066667,16.3 26.4133333,17.46 C26.82,18.3866667 26.6133333,19.54 25.8333333,20.7066667 C24.9866667,21.9666667 23.6,23.0666667 21.92,23.8066667 C20.6333333,24.3733333 19.2933333,24.6733333 18.0466667,24.6733333 C16.1533333,24.6733333 14.7133333,23.9866667 14.2066667,22.8266667 C13.7933333,21.9 14.0066667,20.7466667 14.7866667,19.58 L14.7866667,19.58 Z" id="Shape"></path>
                    <path d="M18,20.6666667 L22.6666667,20.6666667 C23.0333333,20.6666667 23.3333333,20.3666667 23.3333333,20 C23.3333333,19.6333333 23.0333333,19.3333333 22.6666667,19.3333333 L18,19.3333333 C17.6333333,19.3333333 17.3333333,19.6333333 17.3333333,20 C17.3333333,20.3666667 17.6333333,20.6666667 18,20.6666667 L18,20.6666667 Z" id="Shape"></path>
                </g>
            </g>
        </g>
    </g>
</svg>