<?xml version="1.0" encoding="UTF-8" standalone="no"?>
<svg width="46px" height="40px" viewBox="0 0 46 40" version="1.1" xmlns="http://www.w3.org/2000/svg" xmlns:xlink="http://www.w3.org/1999/xlink">
    <!-- Generator: sketchtool 3.8.2 (29753) - http://www.bohemiancoding.com/sketch -->
    <title>70EE3ECD-3513-48B9-997B-C8AD1FC00F3C</title>
    <desc>Created with sketchtool.</desc>
    <defs></defs>
    <g id="Page-1" stroke="none" stroke-width="1" fill="none" fill-rule="evenodd">
        <g id="System-Information" transform="translate(-822.000000, -123.000000)" fill="#000000">
            <g id="Motherboard" transform="translate(660.000000, 70.000000)">
                <g id="Icon" transform="translate(162.000000, 53.000000)">
                    <circle id="Oval" cx="21.1320755" cy="16.6037736" r="0.754716981"></circle>
                    <ellipse id="Oval" cx="21.1320755" cy="18.8679245" rx="0.754716981" ry="0.754716981"></ellipse>
                    <circle id="Oval" cx="21.1320755" cy="21.1320755" r="0.754716981"></circle>
                    <ellipse id="Oval" cx="21.1320755" cy="9.81132075" rx="0.754716981" ry="0.754716981"></ellipse>
                    <circle id="Oval" cx="18.8679245" cy="11.3207547" r="0.754716981"></circle>
                    <ellipse id="Oval" cx="18.8679245" cy="14.3396226" rx="0.754716981" ry="0.754716981"></ellipse>
                    <ellipse id="Oval" cx="42.2641509" cy="11.3207547" rx="0.754716981" ry="0.754716981"></ellipse>
                    <ellipse id="Oval" cx="42.2641509" cy="16.6037736" rx="0.754716981" ry="0.754716981"></ellipse>
                    <ellipse id="Oval" cx="14.3396226" cy="27.1698113" rx="0.754716981" ry="0.754716981"></ellipse>
                    <ellipse id="Oval" cx="12.0754717" cy="27.1698113" rx="0.754716981" ry="0.754716981"></ellipse>
                    <ellipse id="Oval" cx="9.81132075" cy="27.1698113" rx="0.754716981" ry="0.754716981"></ellipse>
                    <circle id="Oval" cx="3.01886792" cy="18.1132075" r="0.754716981"></circle>
                    <ellipse id="Oval" cx="3.01886792" cy="20.3773585" rx="0.754716981" ry="0.754716981"></ellipse>
                    <ellipse id="Oval" cx="3.01886792" cy="22.6415094" rx="0.754716981" ry="0.754716981"></ellipse>
                    <circle id="Oval" cx="21.1320755" cy="12.0754717" r="0.754716981"></circle>
                    <circle id="Oval" cx="21.1320755" cy="14.3396226" r="0.754716981"></circle>
                    <path d="M43.0188679,2.26415094 L43.0188679,1.50943396 C43.0188679,1.09433962 42.6792453,0.754716981 42.2641509,0.754716981 C41.8490566,0.754716981 41.509434,1.09433962 41.509434,1.50943396 L41.509434,2.26415094 L40.754717,2.26415094 L40.754717,0 L37.7358491,0 L36.2264151,0 L34.7169811,0 L33.2075472,0 L31.6981132,0 L30.1886792,0 L28.6792453,0 L27.1698113,0 L24.1509434,0 L24.1509434,2.26415094 L23.3962264,2.26415094 L23.3962264,1.50943396 C23.3962264,1.09433962 23.0566038,0.754716981 22.6415094,0.754716981 C22.2264151,0.754716981 21.8867925,1.09433962 21.8867925,1.50943396 L21.8867925,2.26415094 L21.1320755,2.26415094 L21.1320755,1.50943396 C21.1320755,1.09433962 20.7924528,0.754716981 20.3773585,0.754716981 C19.9622642,0.754716981 19.6226415,1.09433962 19.6226415,1.50943396 L19.6226415,2.26415094 L16.6037736,2.26415094 L12.0754717,2.26415094 L10.5660377,2.26415094 L6.03773585,2.26415094 L0,2.26415094 L0,40 L45.2830189,40 L45.2830189,2.26415094 L43.0188679,2.26415094 L43.0188679,2.26415094 Z M37.7358491,1.50943396 L39.245283,1.50943396 L39.245283,2.26415094 L37.7358491,2.26415094 L37.7358491,1.50943396 L37.7358491,1.50943396 Z M34.7169811,1.50943396 L36.2264151,1.50943396 L36.2264151,2.26415094 L34.7169811,2.26415094 L34.7169811,1.50943396 L34.7169811,1.50943396 Z M31.6981132,1.50943396 L33.2075472,1.50943396 L33.2075472,2.26415094 L31.6981132,2.26415094 L31.6981132,1.50943396 L31.6981132,1.50943396 Z M28.6792453,1.50943396 L30.1886792,1.50943396 L30.1886792,2.26415094 L28.6792453,2.26415094 L28.6792453,1.50943396 L28.6792453,1.50943396 Z M25.6603774,1.50943396 L27.1698113,1.50943396 L27.1698113,2.26415094 L25.6603774,2.26415094 L25.6603774,1.50943396 L25.6603774,1.50943396 Z M15.0943396,3.77358491 L15.0943396,19.6226415 L13.5849057,19.6226415 L13.5849057,3.77358491 L15.0943396,3.77358491 L15.0943396,3.77358491 Z M9.05660377,3.77358491 L9.05660377,15.0943396 L7.54716981,15.0943396 L7.54716981,3.77358491 L9.05660377,3.77358491 L9.05660377,3.77358491 Z M43.7735849,38.490566 L1.50943396,38.490566 L1.50943396,37.7358491 L3.01886792,37.7358491 C3.43396226,37.7358491 3.77358491,37.3962264 3.77358491,36.9811321 C3.77358491,36.5660377 3.43396226,36.2264151 3.01886792,36.2264151 L1.50943396,36.2264151 L1.50943396,35.4716981 L3.01886792,35.4716981 C3.43396226,35.4716981 3.77358491,35.1320755 3.77358491,34.7169811 C3.77358491,34.3018868 3.43396226,33.9622642 3.01886792,33.9622642 L1.50943396,33.9622642 L1.50943396,33.2075472 L3.01886792,33.2075472 C3.43396226,33.2075472 3.77358491,32.8679245 3.77358491,32.4528302 C3.77358491,32.0377358 3.43396226,31.6981132 3.01886792,31.6981132 L1.50943396,31.6981132 L1.50943396,30.9433962 L3.01886792,30.9433962 C3.43396226,30.9433962 3.77358491,30.6037736 3.77358491,30.1886792 C3.77358491,29.7735849 3.43396226,29.4339623 3.01886792,29.4339623 L1.50943396,29.4339623 L1.50943396,28.6792453 L3.01886792,28.6792453 C3.43396226,28.6792453 3.77358491,28.3396226 3.77358491,27.9245283 C3.77358491,27.509434 3.43396226,27.1698113 3.01886792,27.1698113 L1.50943396,27.1698113 L1.50943396,12.0754717 L3.01886792,12.0754717 C3.43396226,12.0754717 3.77358491,11.7358491 3.77358491,11.3207547 C3.77358491,10.9056604 3.43396226,10.5660377 3.01886792,10.5660377 L1.50943396,10.5660377 L1.50943396,9.81132075 L3.01886792,9.81132075 C3.43396226,9.81132075 3.77358491,9.47169811 3.77358491,9.05660377 C3.77358491,8.64150943 3.43396226,8.30188679 3.01886792,8.30188679 L1.50943396,8.30188679 L1.50943396,7.54716981 L3.01886792,7.54716981 C3.43396226,7.54716981 3.77358491,7.20754717 3.77358491,6.79245283 C3.77358491,6.37735849 3.43396226,6.03773585 3.01886792,6.03773585 L1.50943396,6.03773585 L1.50943396,3.77358491 L6.03773585,3.77358491 L6.03773585,16.6037736 L7.54716981,16.6037736 L7.54716981,17.3584906 C7.54716981,17.7735849 7.88679245,18.1132075 8.30188679,18.1132075 C8.71698113,18.1132075 9.05660377,17.7735849 9.05660377,17.3584906 L9.05660377,16.6037736 L10.5660377,16.6037736 L10.5660377,3.77358491 L12.0754717,3.77358491 L12.0754717,21.1320755 L13.5849057,21.1320755 L13.5849057,21.8867925 C13.5849057,22.3018868 13.9245283,22.6415094 14.3396226,22.6415094 C14.754717,22.6415094 15.0943396,22.3018868 15.0943396,21.8867925 L15.0943396,21.1320755 L16.6037736,21.1320755 L16.6037736,3.77358491 L24.1509434,3.77358491 L27.1698113,3.77358491 L28.6792453,3.77358491 L30.1886792,3.77358491 L31.6981132,3.77358491 L33.2075472,3.77358491 L34.7169811,3.77358491 L36.2264151,3.77358491 L37.7358491,3.77358491 L40.754717,3.77358491 L43.7735849,3.77358491 L43.7735849,38.490566 L43.7735849,38.490566 Z" id="Shape"></path>
                    <path d="M27.9245283,18.1132075 L29.4339623,18.1132075 L29.4339623,19.6226415 L30.9433962,19.6226415 L30.9433962,18.1132075 L31.6981132,18.1132075 L31.6981132,19.6226415 L33.2075472,19.6226415 L33.2075472,18.1132075 L33.9622642,18.1132075 L33.9622642,19.6226415 L35.4716981,19.6226415 L35.4716981,18.1132075 L36.9811321,18.1132075 L36.9811321,16.6037736 L38.490566,16.6037736 L38.490566,15.0943396 L36.9811321,15.0943396 L36.9811321,14.3396226 L38.490566,14.3396226 L38.490566,12.8301887 L36.9811321,12.8301887 L36.9811321,12.0754717 L38.490566,12.0754717 L38.490566,10.5660377 L36.9811321,10.5660377 L36.9811321,9.05660377 L35.4716981,9.05660377 L35.4716981,7.54716981 L33.9622642,7.54716981 L33.9622642,9.05660377 L33.2075472,9.05660377 L33.2075472,7.54716981 L31.6981132,7.54716981 L31.6981132,9.05660377 L30.9433962,9.05660377 L30.9433962,7.54716981 L29.4339623,7.54716981 L29.4339623,9.05660377 L27.9245283,9.05660377 L27.9245283,10.5660377 L26.4150943,10.5660377 L26.4150943,12.0754717 L27.9245283,12.0754717 L27.9245283,12.8301887 L26.4150943,12.8301887 L26.4150943,14.3396226 L27.9245283,14.3396226 L27.9245283,15.0943396 L26.4150943,15.0943396 L26.4150943,16.6037736 L27.9245283,16.6037736 L27.9245283,18.1132075 L27.9245283,18.1132075 Z M29.4339623,10.5660377 L35.4716981,10.5660377 L35.4716981,16.6037736 L29.4339623,16.6037736 L29.4339623,10.5660377 L29.4339623,10.5660377 Z" id="Shape"></path>
                    <path d="M26.1962264,21.8867925 L38.709434,21.8867925 C39.8339623,21.8867925 40.754717,20.9735849 40.754717,19.8415094 L40.754717,7.32830189 C40.754717,6.19622642 39.8415094,5.28301887 38.709434,5.28301887 L26.1962264,5.28301887 C25.0716981,5.28301887 24.1509434,6.19622642 24.1509434,7.32830189 L24.1509434,19.8415094 C24.1509434,20.9735849 25.0716981,21.8867925 26.1962264,21.8867925 L26.1962264,21.8867925 Z M25.6603774,7.32830189 C25.6603774,7.03396226 25.9018868,6.79245283 26.1962264,6.79245283 L38.709434,6.79245283 C39.0037736,6.79245283 39.245283,7.03396226 39.245283,7.32830189 L39.245283,19.8415094 C39.245283,20.1358491 39.0037736,20.3773585 38.709434,20.3773585 L26.1962264,20.3773585 C25.9018868,20.3773585 25.6603774,20.1358491 25.6603774,19.8415094 L25.6603774,7.32830189 L25.6603774,7.32830189 Z" id="Shape"></path>
                    <path d="M41.509434,26.4150943 C41.9245283,26.4150943 42.2641509,26.0754717 42.2641509,25.6603774 C42.2641509,25.245283 41.9245283,24.9056604 41.509434,24.9056604 L40.754717,24.9056604 L40.754717,23.3962264 L19.6226415,23.3962264 L19.6226415,24.9056604 L18.8679245,24.9056604 C18.4528302,24.9056604 18.1132075,25.245283 18.1132075,25.6603774 C18.1132075,26.0754717 18.4528302,26.4150943 18.8679245,26.4150943 L19.6226415,26.4150943 L19.6226415,27.9245283 L18.8679245,27.9245283 C18.4528302,27.9245283 18.1132075,28.2641509 18.1132075,28.6792453 C18.1132075,29.0943396 18.4528302,29.4339623 18.8679245,29.4339623 L19.6226415,29.4339623 L19.6226415,30.9433962 L18.8679245,30.9433962 C18.4528302,30.9433962 18.1132075,31.2830189 18.1132075,31.6981132 C18.1132075,32.1132075 18.4528302,32.4528302 18.8679245,32.4528302 L19.6226415,32.4528302 L19.6226415,33.9622642 L18.8679245,33.9622642 C18.4528302,33.9622642 18.1132075,34.3018868 18.1132075,34.7169811 C18.1132075,35.1320755 18.4528302,35.4716981 18.8679245,35.4716981 L19.6226415,35.4716981 L19.6226415,36.9811321 L40.754717,36.9811321 L40.754717,35.4716981 L41.509434,35.4716981 C41.9245283,35.4716981 42.2641509,35.1320755 42.2641509,34.7169811 C42.2641509,34.3018868 41.9245283,33.9622642 41.509434,33.9622642 L40.754717,33.9622642 L40.754717,32.4528302 L41.509434,32.4528302 C41.9245283,32.4528302 42.2641509,32.1132075 42.2641509,31.6981132 C42.2641509,31.2830189 41.9245283,30.9433962 41.509434,30.9433962 L40.754717,30.9433962 L40.754717,29.4339623 L41.509434,29.4339623 C41.9245283,29.4339623 42.2641509,29.0943396 42.2641509,28.6792453 C42.2641509,28.2641509 41.9245283,27.9245283 41.509434,27.9245283 L40.754717,27.9245283 L40.754717,26.4150943 L41.509434,26.4150943 L41.509434,26.4150943 Z M39.245283,26.4150943 L38.490566,26.4150943 L38.490566,24.9056604 L39.245283,24.9056604 L39.245283,26.4150943 L39.245283,26.4150943 Z M39.245283,29.4339623 L38.490566,29.4339623 L38.490566,27.9245283 L39.245283,27.9245283 L39.245283,29.4339623 L39.245283,29.4339623 Z M39.245283,32.4528302 L38.490566,32.4528302 L38.490566,30.9433962 L39.245283,30.9433962 L39.245283,32.4528302 L39.245283,32.4528302 Z M23.3962264,32.4528302 L23.3962264,30.9433962 L36.9811321,30.9433962 L36.9811321,32.4528302 L23.3962264,32.4528302 L23.3962264,32.4528302 Z M36.9811321,33.9622642 L36.9811321,35.4716981 L23.3962264,35.4716981 L23.3962264,33.9622642 L36.9811321,33.9622642 L36.9811321,33.9622642 Z M21.1320755,30.9433962 L21.8867925,30.9433962 L21.8867925,32.4528302 L21.1320755,32.4528302 L21.1320755,30.9433962 L21.1320755,30.9433962 Z M21.1320755,27.9245283 L21.8867925,27.9245283 L21.8867925,29.4339623 L21.1320755,29.4339623 L21.1320755,27.9245283 L21.1320755,27.9245283 Z M36.9811321,27.9245283 L36.9811321,29.4339623 L23.3962264,29.4339623 L23.3962264,27.9245283 L36.9811321,27.9245283 L36.9811321,27.9245283 Z M23.3962264,26.4150943 L23.3962264,24.9056604 L36.9811321,24.9056604 L36.9811321,26.4150943 L23.3962264,26.4150943 L23.3962264,26.4150943 Z M21.1320755,24.9056604 L21.8867925,24.9056604 L21.8867925,26.4150943 L21.1320755,26.4150943 L21.1320755,24.9056604 L21.1320755,24.9056604 Z M21.1320755,33.9622642 L21.8867925,33.9622642 L21.8867925,35.4716981 L21.1320755,35.4716981 L21.1320755,33.9622642 L21.1320755,33.9622642 Z M39.245283,35.4716981 L38.490566,35.4716981 L38.490566,33.9622642 L39.245283,33.9622642 L39.245283,35.4716981 L39.245283,35.4716981 Z" id="Shape"></path>
                    <path d="M15.8490566,32.4528302 C16.2641509,32.4528302 16.6037736,32.1132075 16.6037736,31.6981132 C16.6037736,31.2830189 16.2641509,30.9433962 15.8490566,30.9433962 L15.0943396,30.9433962 L15.0943396,29.4339623 L9.05660377,29.4339623 L9.05660377,30.9433962 L8.30188679,30.9433962 C7.88679245,30.9433962 7.54716981,31.2830189 7.54716981,31.6981132 C7.54716981,32.1132075 7.88679245,32.4528302 8.30188679,32.4528302 L9.05660377,32.4528302 L9.05660377,33.2075472 L8.30188679,33.2075472 C7.88679245,33.2075472 7.54716981,33.5471698 7.54716981,33.9622642 C7.54716981,34.3773585 7.88679245,34.7169811 8.30188679,34.7169811 L9.05660377,34.7169811 L9.05660377,36.2264151 L15.0943396,36.2264151 L15.0943396,34.7169811 L15.8490566,34.7169811 C16.2641509,34.7169811 16.6037736,34.3773585 16.6037736,33.9622642 C16.6037736,33.5471698 16.2641509,33.2075472 15.8490566,33.2075472 L15.0943396,33.2075472 L15.0943396,32.4528302 L15.8490566,32.4528302 L15.8490566,32.4528302 Z M13.5849057,34.7169811 L10.5660377,34.7169811 L10.5660377,30.9433962 L13.5849057,30.9433962 L13.5849057,34.7169811 L13.5849057,34.7169811 Z" id="Shape"></path>
                    <path d="M10.5660377,19.6226415 L5.28301887,19.6226415 L5.28301887,24.9056604 L10.5660377,24.9056604 L10.5660377,19.6226415 L10.5660377,19.6226415 Z M9.05660377,23.3962264 L6.79245283,23.3962264 L6.79245283,21.1320755 L9.05660377,21.1320755 L9.05660377,23.3962264 L9.05660377,23.3962264 Z" id="Shape"></path>
                </g>
            </g>
        </g>
    </g>
</svg>