<?xml version="1.0" encoding="UTF-8" standalone="no"?>
<svg width="52px" height="40px" viewBox="0 0 52 40" version="1.1" xmlns="http://www.w3.org/2000/svg" xmlns:xlink="http://www.w3.org/1999/xlink">
    <!-- Generator: sketchtool 3.8.2 (29753) - http://www.bohemiancoding.com/sketch -->
    <title>938ECEF8-5152-406B-9157-CA55E4404DEC</title>
    <desc>Created with sketchtool.</desc>
    <defs></defs>
    <g id="Page-1" stroke="none" stroke-width="1" fill="none" fill-rule="evenodd">
        <g id="System-Information" transform="translate(-624.000000, -356.000000)" fill="#000000">
            <g id="Network" transform="translate(270.000000, 303.000000)">
                <g id="Icon" transform="translate(354.000000, 53.000000)">
                    <path d="M43.9808696,22.5373913 L7.99014493,22.5373913 C3.83188406,22.5373913 0.448115942,25.9205797 0.448115942,30.0788406 C0.448115942,34.2376812 3.83130435,37.6214493 7.99014493,37.6214493 L9.56405797,37.6214493 C9.91594203,38.9136232 11.0869565,39.8707246 12.4886957,39.8707246 L14.7385507,39.8707246 C15.1768116,39.8707246 15.5321739,39.5165217 15.5321739,39.0771014 C15.5321739,38.2747826 16.1843478,37.6214493 16.9872464,37.6214493 L34.9831884,37.6214493 C35.7866667,37.6214493 36.4388406,38.2747826 36.4388406,39.0771014 C36.4388406,39.5165217 36.7936232,39.8707246 37.2318841,39.8707246 L39.4817391,39.8707246 C40.8834783,39.8707246 42.0550725,38.9136232 42.4063768,37.6214493 L43.9814493,37.6214493 C48.1397101,37.6214493 51.5228986,34.2376812 51.5228986,30.0788406 C51.5223188,25.9205797 48.1391304,22.5373913 43.9808696,22.5373913 L43.9808696,22.5373913 Z M14.0631884,38.2834783 L12.4881159,38.2834783 C11.9785507,38.2834783 11.5304348,38.0191304 11.2701449,37.6208696 L14.3315942,37.6208696 C14.2173913,37.8289855 14.1269565,38.0498551 14.0631884,38.2834783 L14.0631884,38.2834783 Z M39.4811594,38.2834783 L37.906087,38.2834783 C37.8434783,38.0498551 37.7524638,37.8289855 37.6371014,37.6208696 L40.6997101,37.6208696 C40.4394203,38.0191304 39.9913043,38.2834783 39.4811594,38.2834783 L39.4811594,38.2834783 Z M43.9808696,36.0336232 L7.99014493,36.0336232 C4.70666667,36.0336232 2.03536232,33.3628986 2.03536232,30.0788406 C2.03536232,26.795942 4.70666667,24.1246377 7.99014493,24.1246377 L43.9808696,24.1246377 C47.2643478,24.1246377 49.9356522,26.795942 49.9356522,30.0788406 C49.9362319,33.3628986 47.2643478,36.0336232 43.9808696,36.0336232 L43.9808696,36.0336232 Z" id="Shape"></path>
                    <path d="M39.4811594,21.8747826 C39.9205797,21.8747826 40.2747826,21.5188406 40.2747826,21.0811594 L40.2747826,12.0834783 C40.2747826,11.6452174 39.9205797,11.2898551 39.4811594,11.2898551 C39.0423188,11.2898551 38.6881159,11.6452174 38.6881159,12.0834783 L38.6881159,21.0811594 C38.6881159,21.5188406 39.0428986,21.8747826 39.4811594,21.8747826 L39.4811594,21.8747826 Z" id="Shape"></path>
                    <path d="M39.4817391,6.12811594 C42.7657971,6.12811594 45.435942,8.80057971 45.435942,12.0828986 C45.435942,12.5211594 45.7913043,12.8765217 46.2301449,12.8765217 C46.6684058,12.8765217 47.0231884,12.5217391 47.0231884,12.0828986 C47.0231884,7.92405797 43.64,4.54144928 39.4811594,4.54144928 C39.0428986,4.54144928 38.6881159,4.89681159 38.6881159,5.33449275 C38.6886957,5.77333333 39.044058,6.12811594 39.4817391,6.12811594 L39.4817391,6.12811594 Z" id="Shape"></path>
                    <path d="M39.4817391,1.62956522 C45.2457971,1.62956522 49.9356522,6.31884058 49.9356522,12.0834783 C49.9356522,12.5217391 50.2898551,12.8771014 50.7286957,12.8771014 C51.1675362,12.8771014 51.5217391,12.5223188 51.5217391,12.0834783 C51.5217391,5.44405797 46.1211594,0.0428985507 39.4811594,0.0428985507 C39.0428986,0.0428985507 38.6881159,0.39826087 38.6881159,0.836521739 C38.6886957,1.2742029 39.044058,1.62956522 39.4817391,1.62956522 L39.4817391,1.62956522 Z" id="Shape"></path>
                    <path d="M7.98898551,27.0371014 C6.31130435,27.0371014 4.94608696,28.4005797 4.94608696,30.0788406 C4.94608696,31.7571014 6.31072464,33.1228986 7.98898551,33.1228986 C9.66724638,33.1228986 11.0318841,31.7571014 11.0318841,30.0788406 C11.0318841,28.4 9.66666667,27.0371014 7.98898551,27.0371014 L7.98898551,27.0371014 Z M7.98898551,31.5350725 C7.18608696,31.5350725 6.53333333,30.8817391 6.53333333,30.0782609 C6.53333333,29.275942 7.18550725,28.6231884 7.98898551,28.6231884 C8.79188406,28.6231884 9.44405797,29.275942 9.44405797,30.0782609 C9.44463768,30.8817391 8.79188406,31.5350725 7.98898551,31.5350725 L7.98898551,31.5350725 Z" id="Shape"></path>
                    <path d="M16.9878261,27.0371014 C15.3095652,27.0371014 13.9449275,28.4005797 13.9449275,30.0788406 C13.9449275,31.7571014 15.3095652,33.1228986 16.9878261,33.1228986 C18.6655072,33.1228986 20.0301449,31.7571014 20.0301449,30.0788406 C20.0301449,28.4 18.6655072,27.0371014 16.9878261,27.0371014 L16.9878261,27.0371014 Z M16.9878261,31.5350725 C16.1849275,31.5350725 15.5327536,30.8817391 15.5327536,30.0782609 C15.5327536,29.275942 16.1849275,28.6231884 16.9878261,28.6231884 C17.7907246,28.6231884 18.4434783,29.275942 18.4434783,30.0782609 C18.4434783,30.8817391 17.7907246,31.5350725 16.9878261,31.5350725 L16.9878261,31.5350725 Z" id="Shape"></path>
                    <path d="M25.9843478,27.0371014 C24.3066667,27.0371014 22.942029,28.4005797 22.942029,30.0788406 C22.942029,31.7571014 24.3066667,33.1228986 25.9843478,33.1228986 C27.662029,33.1228986 29.0272464,31.7571014 29.0272464,30.0788406 C29.0266667,28.4 27.662029,27.0371014 25.9843478,27.0371014 L25.9843478,27.0371014 Z M25.9843478,31.5350725 C25.1814493,31.5350725 24.5286957,30.8817391 24.5286957,30.0782609 C24.5286957,29.275942 25.1814493,28.6231884 25.9843478,28.6231884 C26.7872464,28.6231884 27.44,29.275942 27.44,30.0782609 C27.44,30.8817391 26.7872464,31.5350725 25.9843478,31.5350725 L25.9843478,31.5350725 Z" id="Shape"></path>
                    <path d="M34.9826087,27.0371014 C33.3043478,27.0371014 31.9397101,28.4005797 31.9397101,30.0788406 C31.9397101,31.7571014 33.3043478,33.1228986 34.9826087,33.1228986 C36.6602899,33.1228986 38.0249275,31.7571014 38.0249275,30.0788406 C38.0249275,28.4 36.6597101,27.0371014 34.9826087,27.0371014 L34.9826087,27.0371014 Z M34.9826087,31.5350725 C34.1797101,31.5350725 33.5269565,30.8817391 33.5269565,30.0782609 C33.5269565,29.275942 34.1797101,28.6231884 34.9826087,28.6231884 C35.7855072,28.6231884 36.4382609,29.275942 36.4382609,30.0782609 C36.4376812,30.8817391 35.7849275,31.5350725 34.9826087,31.5350725 L34.9826087,31.5350725 Z" id="Shape"></path>
                    <path d="M43.9808696,27.0371014 C42.3031884,27.0371014 40.9385507,28.4005797 40.9385507,30.0788406 C40.9385507,31.7571014 42.3031884,33.1228986 43.9808696,33.1228986 C45.6591304,33.1228986 47.0231884,31.7571014 47.0231884,30.0788406 C47.0231884,28.4 45.6591304,27.0371014 43.9808696,27.0371014 L43.9808696,27.0371014 Z M43.9808696,31.5350725 C43.177971,31.5350725 42.5252174,30.8817391 42.5252174,30.0782609 C42.5252174,29.275942 43.177971,28.6231884 43.9808696,28.6231884 C44.7837681,28.6231884 45.435942,29.275942 45.435942,30.0782609 C45.435942,30.8817391 44.7837681,31.5350725 43.9808696,31.5350725 L43.9808696,31.5350725 Z" id="Shape"></path>
                </g>
            </g>
        </g>
    </g>
</svg>