<?xml version="1.0" encoding="UTF-8" standalone="no"?>
<svg width="24px" height="20px" viewBox="0 0 24 20" version="1.1" xmlns="http://www.w3.org/2000/svg" xmlns:xlink="http://www.w3.org/1999/xlink">
    <!-- Generator: sketchtool 3.8.2 (29753) - http://www.bohemiancoding.com/sketch -->
    <title>262335FC-EFCD-4804-BECC-74114D7D5D66</title>
    <desc>Created with sketchtool.</desc>
    <defs></defs>
    <g id="Page-1" stroke="none" stroke-width="1" fill="none" fill-rule="evenodd">
        <g id="Camera" transform="translate(-20.000000, -215.000000)" fill="#FFFFFF">
            <g id="Sidebar" transform="translate(0.000000, -1.000000)">
                <g id="Menu" transform="translate(0.000000, 201.000000)">
                    <g id="Task-Manager">
                        <path d="M20,17.828376 L20,32.171624 C20,33.7328671 21.5204816,35 23.3938773,35 L40.6061227,35 C42.4795184,35 44,33.7328671 44,32.171624 L44,17.828376 C44,16.2671329 42.4795184,15 40.6061227,15 L23.3938773,15 C21.5204816,15 20,16.2671329 20,17.828376 L20,17.828376 Z M34.3944665,19.0304358 L35.9954912,24.3966644 L40.5569361,24.3874414 C41.0444985,24.3864166 41.4422954,24.7158814 41.4441399,25.1227167 C41.4447547,25.5290395 41.0488024,25.8605539 40.5612399,25.8615787 L35.3068784,25.8718264 C34.8992443,25.8728512 34.5444857,25.6417647 34.4461125,25.3128122 L33.5859613,22.4326852 L31.3276803,30.9516307 C31.1272448,31.7074014 29.8305623,31.7217483 29.6061483,30.970589 L28.0051236,25.6048728 L23.4436787,25.6140958 C22.9555015,25.6146082 22.5583195,25.2851433 22.5570898,24.8783081 C22.5558601,24.4714729 22.9511976,24.1404709 23.4393749,24.1399585 L28.6943512,24.1291984 C29.1013706,24.128686 29.4561291,24.3592601 29.5538875,24.6882125 L30.4134239,27.5678272 L32.6723197,19.0493941 C32.8727552,18.2936233 34.1700525,18.2792765 34.3944665,19.0304358 L34.3944665,19.0304358 Z" id="Shape" transform="translate(32.000000, 25.000000) scale(1, -1) translate(-32.000000, -25.000000) "></path>
                    </g>
                </g>
            </g>
        </g>
    </g>
</svg>