<?xml version="1.0" encoding="UTF-8" standalone="no"?>
<svg width="30px" height="40px" viewBox="0 0 30 40" version="1.1" xmlns="http://www.w3.org/2000/svg" xmlns:xlink="http://www.w3.org/1999/xlink">
    <!-- Generator: sketchtool 3.8.2 (29753) - http://www.bohemiancoding.com/sketch -->
    <title>082ED0F5-DF5D-4787-80D9-8B3A104613C4</title>
    <desc>Created with sketchtool.</desc>
    <defs></defs>
    <g id="Page-1" stroke="none" stroke-width="1" fill="none" fill-rule="evenodd">
        <g id="System-Information" transform="translate(-1220.000000, -589.000000)" fill="#000000">
            <g id="Drives" transform="translate(1050.000000, 536.000000)">
                <g id="Icon" transform="translate(170.000000, 53.000000)">
                    <path d="M29.1666667,40 L0.833333333,40 C0.373333333,40 0,39.625 0,39.1666667 L0,0.833333333 C0,0.373333333 0.373333333,0 0.833333333,0 L29.1666667,0 C29.625,0 30,0.373333333 30,0.833333333 L30,39.1666667 C30,39.625 29.625,40 29.1666667,40 L29.1666667,40 Z M1.66666667,38.3333333 L28.3333333,38.3333333 L28.3333333,1.66666667 L1.66666667,1.66666667 L1.66666667,38.3333333 L1.66666667,38.3333333 Z" id="Shape"></path>
                    <path d="M15,25 C9.02666667,25 4.16666667,20.14 4.16666667,14.1666667 C4.16666667,8.19333333 9.02666667,3.33333333 15,3.33333333 C20.9733333,3.33333333 25.8333333,8.19333333 25.8333333,14.1666667 C25.8333333,20.14 20.9733333,25 15,25 L15,25 Z M15,5 C9.945,5 5.83333333,9.11166667 5.83333333,14.1666667 C5.83333333,19.2216667 9.945,23.3333333 15,23.3333333 C20.055,23.3333333 24.1666667,19.2216667 24.1666667,14.1666667 C24.1666667,9.11166667 20.055,5 15,5 L15,5 Z" id="Shape"></path>
                    <path d="M15,16.6666667 C13.6216667,16.6666667 12.5,15.545 12.5,14.1666667 C12.5,12.7883333 13.6216667,11.6666667 15,11.6666667 C16.3783333,11.6666667 17.5,12.7883333 17.5,14.1666667 C17.5,15.545 16.3783333,16.6666667 15,16.6666667 L15,16.6666667 Z M15,13.3333333 C14.54,13.3333333 14.1666667,13.7066667 14.1666667,14.1666667 C14.1666667,14.6266667 14.54,15 15,15 C15.46,15 15.8333333,14.6266667 15.8333333,14.1666667 C15.8333333,13.7066667 15.46,13.3333333 15,13.3333333 L15,13.3333333 Z" id="Shape"></path>
                    <path d="M23.3333333,36.6666667 C21.955,36.6666667 20.8333333,35.545 20.8333333,34.1666667 C20.8333333,32.7883333 21.955,31.6666667 23.3333333,31.6666667 C24.7116667,31.6666667 25.8333333,32.7883333 25.8333333,34.1666667 C25.8333333,35.545 24.7116667,36.6666667 23.3333333,36.6666667 L23.3333333,36.6666667 Z M23.3333333,33.3333333 C22.875,33.3333333 22.5,33.7083333 22.5,34.1666667 C22.5,34.625 22.875,35 23.3333333,35 C23.7916667,35 24.1666667,34.625 24.1666667,34.1666667 C24.1666667,33.7083333 23.7916667,33.3333333 23.3333333,33.3333333 L23.3333333,33.3333333 Z" id="Shape"></path>
                    <path d="M8.39333333,22.5 C8.19666667,22.5 8.00166667,22.4316667 7.84166667,22.2916667 C7.49666667,21.9883333 7.46333333,21.4616667 7.76833333,21.115 L11.0716667,17.365 C11.3766667,17.0183333 11.9033333,16.9866667 12.2483333,17.2916667 C12.5933333,17.5966667 12.6266667,18.1216667 12.3216667,18.4683333 L9.01833333,22.2183333 C8.85333333,22.405 8.62333333,22.5 8.39333333,22.5 L8.39333333,22.5 Z" id="Shape"></path>
                    <polygon id="Shape" points="1.66666667 28.3333333 28.3333333 28.3333333 28.3333333 30 1.66666667 30"></polygon>
                </g>
            </g>
        </g>
    </g>
</svg>