<?xml version="1.0" encoding="UTF-8" standalone="no"?>
<svg width="24px" height="14px" viewBox="0 0 24 14" version="1.1" xmlns="http://www.w3.org/2000/svg" xmlns:xlink="http://www.w3.org/1999/xlink">
    <!-- Generator: sketchtool 3.8.2 (29753) - http://www.bohemiancoding.com/sketch -->
    <title>E2294427-EE3D-4F8A-92E2-422185B2F088</title>
    <desc>Created with sketchtool.</desc>
    <defs></defs>
    <g id="Page-1" stroke="none" stroke-width="1" fill="none" fill-rule="evenodd">
        <g id="Camera" transform="translate(-20.000000, -368.000000)" fill="#FFFFFF">
            <g id="Sidebar" transform="translate(0.000000, -1.000000)">
                <g id="Menu" transform="translate(0.000000, 201.000000)">
                    <g id="File-System" transform="translate(0.000000, 150.000000)">
                        <g id="Group-2" transform="translate(20.000000, 18.000000)">
                            <path d="M19.9566593,9.44782418 C19.5333626,9.44782418 19.1897143,9.79147253 19.1897143,10.2142418 C19.1897143,10.6380659 19.5333626,10.983033 19.9566593,10.983033 C20.3807473,10.983033 20.7238681,10.6380659 20.7238681,10.2142418 C20.7238681,9.79147253 20.3807473,9.44782418 19.9566593,9.44782418 L19.9566593,9.44782418 Z" id="Shape"></path>
                            <path d="M23.7497143,8.94435165 L22.1332747,3.02716484 C21.6593407,1.32395604 21.2099341,0.212835165 18.8078242,0.212835165 L16.1293187,0.212835165 L7.81318681,0.212835165 L5.13441758,0.212835165 C2.73336264,0.212835165 2.28237363,1.32395604 1.81028571,3.02716484 L0.193582418,8.94435165 C-0.354461538,12.3230769 1.70558242,13.5341538 3.54171429,13.5341538 L8.27525275,13.5341538 L15.6672527,13.5341538 L20.4013187,13.5341538 C22.2377143,13.5341538 24.2985495,12.3230769 23.7497143,8.94435165 L23.7497143,8.94435165 Z M3.46971429,12.4678681 C2.22514286,12.4678681 1.21661538,11.4588132 1.21661538,10.2142418 C1.21661538,8.97072527 2.22540659,7.96193407 3.46971429,7.96193407 L3.95340659,7.96193407 L4.5956044,7.96193407 L5.19481319,7.96193407 L5.83701099,7.96193407 L6.43701099,7.96193407 L7.07894505,7.96193407 L7.67815385,7.96193407 L8.32114286,7.96193407 L20.5983297,7.96193407 C21.8423736,7.96193407 22.8514286,8.97072527 22.8514286,10.2142418 C22.8516923,11.4588132 21.8423736,12.4678681 20.5985934,12.4678681 L3.46971429,12.4678681 Z" id="Shape"></path>
                            <path d="M17.3791648,9.44782418 C16.9548132,9.44782418 16.6127473,9.79147253 16.6127473,10.2142418 C16.6127473,10.6380659 16.9548132,10.983033 17.3791648,10.983033 C17.8032527,10.983033 18.1450549,10.6380659 18.1450549,10.2142418 C18.1450549,9.79147253 17.8032527,9.44782418 17.3791648,9.44782418 L17.3791648,9.44782418 Z" id="Shape"></path>
                        </g>
                    </g>
                </g>
            </g>
        </g>
    </g>
</svg>