<?xml version="1.0" encoding="UTF-8" standalone="no"?>
<svg width="55px" height="40px" viewBox="0 0 55 40" version="1.1" xmlns="http://www.w3.org/2000/svg" xmlns:xlink="http://www.w3.org/1999/xlink">
    <!-- Generator: sketchtool 3.8.2 (29753) - http://www.bohemiancoding.com/sketch -->
    <title>7CF73C6C-E1F3-43E6-9C8B-5850EC2E238D</title>
    <desc>Created with sketchtool.</desc>
    <defs></defs>
    <g id="Page-1" stroke="none" stroke-width="1" fill="none" fill-rule="evenodd">
        <g id="System-Information" transform="translate(-623.000000, -589.000000)" fill="#000000">
            <g id="Video-Cards" transform="translate(270.000000, 536.000000)">
                <g id="Icon" transform="translate(353.000000, 53.000000)">
                    <ellipse id="Oval" cx="6.36363636" cy="7.27272727" rx="0.909090909" ry="0.909090909"></ellipse>
                    <ellipse id="Oval" cx="6.36363636" cy="30.9090909" rx="0.909090909" ry="0.909090909"></ellipse>
                    <ellipse id="Oval" cx="50.9090909" cy="7.27272727" rx="0.909090909" ry="0.909090909"></ellipse>
                    <ellipse id="Oval" cx="50.9090909" cy="30.9090909" rx="0.909090909" ry="0.909090909"></ellipse>
                    <path d="M54.5454545,3.63636364 L4.54545455,3.63636364 L4.54545455,0.909090909 C4.54545455,0.409090909 4.13636364,0 3.63636364,0 L0.909090909,0 C0.409090909,0 0,0.409090909 0,0.909090909 C0,1.40909091 0.409090909,1.81818182 0.909090909,1.81818182 L2.72727273,1.81818182 L2.72727273,3.63636364 L2.72727273,6.36363636 L0,6.36363636 L0,11.8181818 L2.72727273,11.8181818 L2.72727273,14.5454545 L1.81818182,14.5454545 C1.31818182,14.5454545 0.909090909,14.9545455 0.909090909,15.4545455 C0.909090909,15.9545455 1.31818182,16.3636364 1.81818182,16.3636364 L2.72727273,16.3636364 L2.72727273,17.2727273 L0,17.2727273 L0,30.9090909 L2.72727273,30.9090909 L2.72727273,31.8181818 L1.81818182,31.8181818 C1.31818182,31.8181818 0.909090909,32.2272727 0.909090909,32.7272727 C0.909090909,33.2272727 1.31818182,33.6363636 1.81818182,33.6363636 L2.72727273,33.6363636 L2.72727273,34.5454545 L2.72727273,39.0909091 C2.72727273,39.5909091 3.13636364,40 3.63636364,40 C4.13636364,40 4.54545455,39.5909091 4.54545455,39.0909091 L4.54545455,34.5454545 L10,34.5454545 L10,38.1818182 L33.6363636,38.1818182 L33.6363636,34.5454545 L54.5454545,34.5454545 L54.5454545,3.63636364 L54.5454545,3.63636364 Z M1.81818182,10 L1.81818182,8.18181818 L2.72727273,8.18181818 L2.72727273,10 L1.81818182,10 L1.81818182,10 Z M1.81818182,29.0909091 L1.81818182,19.0909091 L2.72727273,19.0909091 L2.72727273,29.0909091 L1.81818182,29.0909091 L1.81818182,29.0909091 Z M31.8181818,36.3636364 L30.9090909,36.3636364 L30.9090909,35.4545455 L29.0909091,35.4545455 L29.0909091,36.3636364 L28.1818182,36.3636364 L28.1818182,35.4545455 L26.3636364,35.4545455 L26.3636364,36.3636364 L25.4545455,36.3636364 L25.4545455,35.4545455 L23.6363636,35.4545455 L23.6363636,36.3636364 L22.7272727,36.3636364 L22.7272727,35.4545455 L20.9090909,35.4545455 L20.9090909,36.3636364 L20,36.3636364 L20,35.4545455 L18.1818182,35.4545455 L18.1818182,36.3636364 L17.2727273,36.3636364 L17.2727273,35.4545455 L15.4545455,35.4545455 L15.4545455,36.3636364 L14.5454545,36.3636364 L14.5454545,35.4545455 L12.7272727,35.4545455 L12.7272727,36.3636364 L11.8181818,36.3636364 L11.8181818,34.5454545 L31.8181818,34.5454545 L31.8181818,36.3636364 L31.8181818,36.3636364 Z M52.7272727,32.7272727 L33.6363636,32.7272727 L10,32.7272727 L4.54545455,32.7272727 L4.54545455,30.9090909 L4.54545455,17.2727273 L4.54545455,11.8181818 L4.54545455,6.36363636 L4.54545455,5.45454545 L52.7272727,5.45454545 L52.7272727,32.7272727 L52.7272727,32.7272727 Z" id="Shape"></path>
                    <path d="M15.4545455,31.8181818 L27.0909091,31.8181818 L25.1909091,30.2181818 C24.3636364,29.5181818 23.6,28.7 22.8636364,27.7272727 C21.3454545,25.9727273 20.3545455,23.4454545 20.0818182,20.5545455 C20.0272727,20 20,19.5363636 20,19.0909091 C20,18.6454545 20.0272727,18.1818182 20.0818182,17.5636364 C20.3545455,14.7363636 21.3363636,12.2181818 22.9,10.4090909 C23.5909091,9.49090909 24.3545455,8.67272727 25.1818182,7.97272727 L27.0909091,6.36363636 L15.4545455,6.36363636 C10.4454545,6.36363636 6.36363636,12.0727273 6.36363636,19.0909091 C6.36363636,26.1090909 10.4454545,31.8181818 15.4545455,31.8181818 L15.4545455,31.8181818 Z M15.4545455,8.18181818 L22.3636364,8.18181818 C22.0545455,8.52727273 21.7545455,8.89090909 21.4818182,9.26363636 C19.7090909,11.3090909 18.5727273,14.1909091 18.2636364,17.4636364 C18.2090909,18.0727273 18.1818182,18.5909091 18.1818182,19.0909091 C18.1818182,19.5909091 18.2090909,20.1090909 18.2727273,20.7909091 C18.5727273,23.9909091 19.7181818,26.8727273 21.4454545,28.8636364 C21.7363636,29.2545455 22.0454545,29.6363636 22.3727273,30 L15.4545455,30 C11.4454545,30 8.18181818,25.1090909 8.18181818,19.0909091 C8.18181818,13.0727273 11.4454545,8.18181818 15.4545455,8.18181818 L15.4545455,8.18181818 Z" id="Shape"></path>
                    <path d="M22.7272727,19.0909091 C22.7272727,24.6181818 26.1909091,29.7090909 31.3454545,31.7545455 L31.5,31.8181818 L41.2181818,31.8181818 L41.3818182,31.7545455 C46.5363636,29.7090909 50,24.6181818 50,19.0909091 C50,13.5636364 46.5363636,8.47272727 41.3818182,6.42727273 L41.2272727,6.36363636 L31.5,6.36363636 L31.3363636,6.42727273 C26.1909091,8.47272727 22.7272727,13.5636364 22.7272727,19.0909091 L22.7272727,19.0909091 Z M31.8545455,8.18181818 L40.8727273,8.18181818 C45.2545455,9.99090909 48.1818182,14.3545455 48.1818182,19.0909091 C48.1818182,23.8272727 45.2545455,28.1909091 40.8727273,30 L31.8545455,30 C27.4727273,28.1909091 24.5454545,23.8272727 24.5454545,19.0909091 C24.5454545,14.3545455 27.4727273,9.99090909 31.8545455,8.18181818 L31.8545455,8.18181818 Z" id="Shape"></path>
                    <path d="M26.6818182,19.0181818 C26.9727273,19.3818182 27.4,19.5909091 27.8636364,19.5909091 C28.0272727,19.5909091 28.1818182,19.5636364 28.3363636,19.5181818 C28.8181818,19.3636364 29.3727273,19.2818182 29.9363636,19.2818182 C30.2545455,19.2818182 30.5636364,19.3090909 30.8727273,19.3636364 C29.6545455,20.1909091 28.2545455,21.3363636 27.3909091,22.6272727 L27.1272727,23.0272727 L27.3090909,23.4727273 C27.8363636,24.7727273 29.4090909,26.2818182 30.6363636,27.3272727 C30.9090909,27.5545455 31.2454545,27.6818182 31.6,27.6818182 L31.6,27.6818182 C32.3454545,27.6818182 32.9636364,27.1454545 33.0818182,26.4 C33.1727273,25.8454545 33.4090909,25.1727273 33.8,24.5090909 C33.9181818,25.8454545 34.1818182,27.3454545 34.7545455,28.5636364 L34.9636364,29 L35.4454545,29.0727273 C35.6545455,29.1090909 35.8818182,29.1181818 36.1181818,29.1181818 C37.4636364,29.1181818 39.2272727,28.6272727 40.4636364,28.2090909 C40.9818182,28.0363636 41.3454545,27.6181818 41.4454545,27.0818182 C41.5454545,26.5454545 41.3454545,25.9909091 40.9272727,25.6363636 C40.5272727,25.3 40.1090909,24.8 39.7545455,24.1909091 C40.9181818,24.7636364 42.2636364,25.2909091 43.5363636,25.4454545 L44.0181818,25.5 L44.3363636,25.1363636 C45.2454545,24.0727273 45.8909091,21.9909091 46.2636364,20.4272727 C46.3727273,19.9818182 46.2727273,19.5181818 45.9909091,19.1636364 C45.6,18.6727273 44.9272727,18.4727273 44.3272727,18.6636364 C43.8454545,18.8181818 43.2909091,18.9 42.7272727,18.9 C42.4090909,18.9 42.1,18.8727273 41.7909091,18.8181818 C43.0090909,17.9909091 44.4090909,16.8454545 45.2727273,15.5545455 L45.5363636,15.1545455 L45.3545455,14.7090909 C44.8272727,13.4090909 43.2545455,11.9 42.0272727,10.8545455 C41.7545455,10.6272727 41.4181818,10.5 41.0636364,10.5 C40.3181818,10.5 39.7,11.0363636 39.5818182,11.7818182 C39.4909091,12.3363636 39.2545455,13.0090909 38.8636364,13.6727273 C38.7454545,12.3363636 38.4818182,10.8363636 37.9090909,9.61818182 L37.7,9.18181818 L37.2181818,9.10909091 C35.8363636,8.89090909 33.6545455,9.48181818 32.2,9.97272727 C31.6818182,10.1454545 31.3181818,10.5636364 31.2090909,11.1 C31.1090909,11.6363636 31.3090909,12.1909091 31.7272727,12.5454545 C32.1272727,12.8818182 32.5454545,13.3818182 32.9,13.9909091 C31.7363636,13.4181818 30.3909091,12.8909091 29.1181818,12.7363636 L28.6363636,12.6818182 L28.3181818,13.0454545 C27.4090909,14.1090909 26.7636364,16.1909091 26.3909091,17.7545455 C26.3,18.2 26.4,18.6636364 26.6818182,19.0181818 L26.6818182,19.0181818 Z M37.9454545,18.2181818 C38.1090909,18.5454545 38.1818182,18.9181818 38.1363636,19.3 L38.0909091,19.6272727 C38.0818182,19.6454545 38.0818182,19.6636364 38.0727273,19.6818182 C37.8909091,20.1909091 37.5,20.6090909 36.9636364,20.8 L36.8909091,20.8272727 C36.7272727,20.8727273 36.5454545,20.9090909 36.3636364,20.9090909 C36.2454545,20.9090909 36.1272727,20.9 36.0181818,20.8727273 C36.0090909,20.8727273 35.9909091,20.8636364 35.9818182,20.8636364 C35.1636364,20.6909091 34.5454545,19.9545455 34.5454545,19.0909091 C34.5454545,18.0909091 35.3636364,17.2727273 36.3636364,17.2727273 C36.4363636,17.2727273 36.5181818,17.2818182 36.5909091,17.3 C36.6909091,17.3181818 36.7909091,17.3272727 36.8909091,17.3636364 C36.9181818,17.3727273 36.9454545,17.3818182 36.9727273,17.3909091 C37.1363636,17.4545455 37.2909091,17.5363636 37.4363636,17.6545455 L37.6727273,17.8454545 C37.7727273,17.9636364 37.8727273,18.0818182 37.9454545,18.2181818 C37.9454545,18.2090909 37.9454545,18.2090909 37.9454545,18.2181818 L37.9454545,18.2181818 Z M31.3909091,25.5818182 C30.3818182,24.6818182 29.6181818,23.8454545 29.2181818,23.2090909 C30.2090909,21.9818182 31.7818182,20.9 32.8636364,20.2454545 C33.0363636,20.7818182 33.3363636,21.2636364 33.7272727,21.6636364 L33.7272727,21.7727273 C32.4454545,22.9181818 31.7,24.3818182 31.3909091,25.5818182 L31.3909091,25.5818182 Z M39.3454545,26.6636364 C38.0545455,27.0636364 36.9545455,27.2909091 36.1909091,27.3090909 C35.6545455,25.8363636 35.5363636,23.9454545 35.5272727,22.6818182 C35.5363636,22.6727273 35.5454545,22.6727273 35.5545455,22.6636364 C36.0727273,22.7818182 36.6181818,22.7818182 37.1363636,22.6636364 C37.1818182,22.7 37.2454545,22.7363636 37.3,22.7727273 C37.6272727,24.4272727 38.4909091,25.7909091 39.3454545,26.6636364 L39.3454545,26.6636364 Z M44.3454545,20.5363636 C44,21.8545455 43.6090909,22.9090909 43.2181818,23.5545455 C41.7090909,23.2363636 40.0636364,22.3545455 38.9909091,21.6909091 C38.9909091,21.6545455 38.9909091,21.6272727 38.9818182,21.5909091 C39.1545455,21.4090909 39.3,21.2181818 39.4363636,21 C39.4636364,20.9545455 39.4818182,20.9090909 39.5090909,20.8636364 C39.6181818,20.6818182 39.7,20.4818182 39.7727273,20.2818182 C39.7909091,20.2454545 39.8090909,20.2090909 39.8272727,20.1727273 C40.9181818,20.6090909 41.9454545,20.7181818 42.7090909,20.7181818 C43.2909091,20.7181818 43.8545455,20.6545455 44.3454545,20.5363636 L44.3454545,20.5363636 Z M41.2636364,12.6 C42.2727273,13.5 43.0363636,14.3363636 43.4363636,14.9727273 C42.4454545,16.2 40.8727273,17.2818182 39.7909091,17.9363636 C39.7,17.6727273 39.5909091,17.4272727 39.4454545,17.1909091 C39.4363636,17.1727273 39.4181818,17.1454545 39.4090909,17.1181818 C39.2636364,16.9 39.1090909,16.6909091 38.9272727,16.5090909 L38.9272727,16.4 C40.2090909,15.2636364 40.9545455,13.8 41.2636364,12.6 L41.2636364,12.6 Z M33.3090909,11.5181818 C34.6,11.1181818 35.7,10.8909091 36.4636364,10.8727273 C37,12.3454545 37.1181818,14.2363636 37.1272727,15.5 C37.1181818,15.5090909 37.1090909,15.5090909 37.1,15.5181818 C36.5818182,15.4 36.0363636,15.4 35.5181818,15.5181818 C35.4727273,15.4818182 35.4090909,15.4454545 35.3545455,15.4090909 C35.0272727,13.7545455 34.1636364,12.3909091 33.3090909,11.5181818 L33.3090909,11.5181818 Z M29.4272727,14.6272727 C30.9363636,14.9454545 32.5818182,15.8272727 33.6545455,16.4909091 C33.6545455,16.5272727 33.6545455,16.5727273 33.6636364,16.6090909 C33.2818182,17.0090909 32.9909091,17.4818182 32.8181818,18.0181818 C31.7272727,17.5818182 30.7,17.4727273 29.9363636,17.4727273 C29.3636364,17.4727273 28.7909091,17.5363636 28.3,17.6545455 C28.6545455,16.3272727 29.0454545,15.2727273 29.4272727,14.6272727 L29.4272727,14.6272727 Z" id="Shape"></path>
                </g>
            </g>
        </g>
    </g>
</svg>