<?xml version="1.0" encoding="UTF-8" standalone="no"?>
<svg width="24px" height="14px" viewBox="0 0 24 14" version="1.1" xmlns="http://www.w3.org/2000/svg" xmlns:xlink="http://www.w3.org/1999/xlink">
    <!-- Generator: sketchtool 3.8.2 (29753) - http://www.bohemiancoding.com/sketch -->
    <title>80DB101F-9F66-492A-9050-F412A7C1AA50</title>
    <desc>Created with sketchtool.</desc>
    <defs></defs>
    <g id="Page-1" stroke="none" stroke-width="1" fill="none" fill-rule="evenodd">
        <g id="Camera" transform="translate(-20.000000, -468.000000)" fill="#FFFFFF">
            <g id="Sidebar" transform="translate(0.000000, -1.000000)">
                <g id="Menu" transform="translate(0.000000, 201.000000)">
                    <g id="Remote" transform="translate(0.000000, 250.000000)">
                        <g id="Group" transform="translate(20.000000, 18.000000)">
                            <path d="M23.7635294,6.60705882 C23.7630588,6.59717647 23.7621176,6.58776471 23.7614118,6.57811765 C23.7609412,6.57317647 23.7607059,6.56823529 23.7602353,6.56352941 C23.7595294,6.55647059 23.7583529,6.54941176 23.7574118,6.54258824 C23.7564706,6.53435294 23.7555294,6.52611765 23.7541176,6.51811765 C23.7538824,6.51717647 23.7536471,6.516 23.7536471,6.51505882 C23.7247059,6.33317647 23.6390588,6.16258824 23.5077647,6.03129412 C22.7571765,5.14164706 21.8642353,4.34988235 20.9562353,3.62682353 C19.0007059,2.06870588 16.7642353,0.765176471 14.2955294,0.240470588 C12.8687059,-0.0625882353 11.4329412,-0.0755294118 9.99858824,0.180941176 C8.69388235,0.414352941 7.43647059,0.899529412 6.25952941,1.50094118 C4.41741176,2.44211765 2.73505882,3.73976471 1.26917647,5.19458824 C0.997882353,5.46376471 0.728,5.73858824 0.481411765,6.03105882 C0.152941176,6.42023529 0.152941176,6.88117647 0.481411765,7.27035294 C1.232,8.16 2.12494118,8.95152941 3.03294118,9.67482353 C4.98870588,11.2329412 7.22517647,12.5362353 9.69388235,13.0609412 C11.1207059,13.3642353 12.5567059,13.3771765 13.9910588,13.1207059 C15.2955294,12.8872941 16.5529412,12.4021176 17.7301176,11.8007059 C19.5722353,10.8592941 21.2545882,9.56188235 22.7204706,8.10705882 C22.9917647,7.83764706 23.2616471,7.56305882 23.5082353,7.27058824 C23.6395294,7.13905882 23.7251765,6.96870588 23.7541176,6.78658824 C23.7541176,6.78564706 23.7543529,6.78447059 23.7545882,6.78352941 C23.756,6.77529412 23.7569412,6.76729412 23.7578824,6.75905882 C23.7588235,6.75223529 23.76,6.74517647 23.7607059,6.73811765 C23.7611765,6.73317647 23.7614118,6.72847059 23.7618824,6.72352941 C23.7625882,6.71411765 23.7635294,6.70470588 23.764,6.69482353 C23.7647059,6.68023529 23.7651765,6.66564706 23.7651765,6.65082353 C23.7651765,6.636 23.7642353,6.62164706 23.7635294,6.60705882 L23.7635294,6.60705882 Z M12,11.1781176 C9.49952941,11.1781176 7.47270588,9.15129412 7.47270588,6.65082353 C7.47270588,4.15058824 9.49952941,2.12352941 12,2.12352941 C14.5004706,2.12352941 16.5272941,4.15035294 16.5272941,6.65082353 C16.5272941,9.15129412 14.5004706,11.1781176 12,11.1781176 L12,11.1781176 Z" id="Shape"></path>
                            <circle id="Oval" cx="12" cy="6.65082353" r="1.49858824"></circle>
                        </g>
                    </g>
                </g>
            </g>
        </g>
    </g>
</svg>