<?xml version="1.0" encoding="UTF-8" standalone="no"?>
<svg width="21px" height="22px" viewBox="0 0 21 22" version="1.1" xmlns="http://www.w3.org/2000/svg" xmlns:xlink="http://www.w3.org/1999/xlink">
    <!-- Generator: sketchtool 3.8.2 (29753) - http://www.bohemiancoding.com/sketch -->
    <title>A4123C92-0E70-436A-935C-765AE2F4D713</title>
    <desc>Created with sketchtool.</desc>
    <defs></defs>
    <g id="Page-1" stroke="none" stroke-width="1" fill="none" fill-rule="evenodd">
        <g id="Camera" transform="translate(-21.000000, -264.000000)" fill="#FFFFFF">
            <g id="Sidebar" transform="translate(0.000000, -1.000000)">
                <g id="Menu" transform="translate(0.000000, 201.000000)">
                    <g id="System-Info" transform="translate(0.000000, 50.000000)">
                        <path d="M36.7142857,23.4285714 L36.7142857,34.4285714 C36.7142857,35.2928571 37.3089286,36 38.0357143,36 L40.6785714,36 C41.4053571,36 42,35.2928571 42,34.4285714 L42,23.4285714 C42,22.5642857 41.4053571,21.8571429 40.6785714,21.8571429 L38.0357143,21.8571429 C37.3089286,21.8571429 36.7142857,22.5642857 36.7142857,23.4285714 L36.7142857,23.4285714 Z M28.8571429,15.5714286 L28.8571429,34.4285714 C28.8571429,35.2928571 29.4517857,36 30.1785714,36 L32.8214286,36 C33.5482143,36 34.1428571,35.2928571 34.1428571,34.4285714 L34.1428571,15.5714286 C34.1428571,14.7071429 33.5482143,14 32.8214286,14 L30.1785714,14 C29.4517857,14 28.8571429,14.7071429 28.8571429,15.5714286 L28.8571429,15.5714286 Z M21,28.1428571 L21,34.4285714 C21,35.2928571 21.5946429,36 22.3214286,36 L24.9642857,36 C25.6910714,36 26.2857143,35.2928571 26.2857143,34.4285714 L26.2857143,28.1428571 C26.2857143,27.2785714 25.6910714,26.5714286 24.9642857,26.5714286 L22.3214286,26.5714286 C21.5946429,26.5714286 21,27.2785714 21,28.1428571 L21,28.1428571 Z" id="Shape"></path>
                    </g>
                </g>
            </g>
        </g>
    </g>
</svg>