<?xml version="1.0" encoding="UTF-8" standalone="no"?>
<svg width="24px" height="16px" viewBox="0 0 24 16" version="1.1" xmlns="http://www.w3.org/2000/svg" xmlns:xlink="http://www.w3.org/1999/xlink">
    <!-- Generator: sketchtool 3.8.2 (29753) - http://www.bohemiancoding.com/sketch -->
    <title>C4A91B65-30B8-4E13-B875-50DAE7C74215</title>
    <desc>Created with sketchtool.</desc>
    <defs></defs>
    <g id="Page-1" stroke="none" stroke-width="1" fill="none" fill-rule="evenodd">
        <g id="Camera" transform="translate(-20.000000, -417.000000)" fill="#FFFFFF">
            <g id="Sidebar" transform="translate(0.000000, -1.000000)">
                <g id="Menu" transform="translate(0.000000, 201.000000)">
                    <g id="Terminal" transform="translate(0.000000, 200.000000)">
                        <path d="M41.7962667,17 L22.5173333,17 C22.0970667,17 20,17.2037333 20,19.3861333 L20,30.2909333 C20,32.4733333 22.288,32.4666667 22.7045333,32.4666667 L41.2309333,32.4666667 C41.6474667,32.4666667 44,32.4733333 44,30.0045333 L44,19.5733333 C44,17.2037333 42.2133333,17 41.7962667,17 L41.7962667,17 Z M29.684,24.8328 L23.2397333,27.7914667 C22.9072,27.948 22.5136,27.7986667 22.3608,27.4661333 C22.3224,27.3744 22.3034667,27.2826667 22.3034667,27.1912 C22.3034667,26.9386667 22.4448,26.6978667 22.6893333,26.5872 L27.8416,24.2210667 L22.6933333,21.8245333 C22.3608,21.6717333 22.2154667,21.2741333 22.372,20.9416 C22.4829333,20.7010667 22.7237333,20.5594667 22.9722667,20.5594667 C23.064,20.5594667 23.1594667,20.5786667 23.2512,20.6205333 L29.68,23.628 C29.8176,23.6893333 29.9208,23.9333333 29.9861333,23.9333333 L29.9898667,23.9333333 C29.9976,23.9333333 30.0050667,23.9528 30.0088,23.9685333 C30.1618667,24.2968 30.0165333,24.6797333 29.684,24.8328 L29.684,24.8328 Z M40.176,29.9848 C40.1568,30.0117333 40.1338667,30.0386667 40.1069333,30.0573333 C40.1029333,30.0653333 40.0954667,30.0730667 40.0842667,30.0802667 C40.0762667,30.088 40.0685333,30.0917333 40.0608,30.0997333 C40.0341333,30.1224 40.0037333,30.1453333 39.9693333,30.1645333 C39.8432,30.2368 39.6938667,30.2789333 39.5333333,30.2789333 L31.1858667,30.2981333 C30.7541333,30.2981333 30.4061333,30 30.4024,29.6330667 C30.4024,29.4496 30.4901333,29.2853333 30.6317333,29.1629333 C30.7730667,29.0442667 30.9642667,28.9717333 31.1821333,28.968 L39.5298667,28.9488 C39.9578667,28.9488 40.3096,29.2469333 40.3096,29.6138667 C40.3096,29.7517333 40.2602667,29.8781333 40.176,29.9848 L40.176,29.9848 Z" id="Shape"></path>
                    </g>
                </g>
            </g>
        </g>
    </g>
</svg>